<?xml version="1.0" encoding="UTF-8"?>
<svg width="70px" height="70px" viewBox="0 0 70 70" version="1.1" xmlns="http://www.w3.org/2000/svg" xmlns:xlink="http://www.w3.org/1999/xlink">
    <!-- Generator: sketchtool 49.3 (51167) - http://www.bohemiancoding.com/sketch -->
    <title>2501A7CA-F82A-47B5-9CBD-B983D709E768@3x</title>
    <desc>Created with sketchtool.</desc>
    <defs>
        <polygon id="path-1" points="0 0 33 0 33 34 0 34"></polygon>
    </defs>
    <g id="Page-1" stroke="none" stroke-width="1" fill="none" fill-rule="evenodd">
        <g id="Step-3" transform="translate(-524.000000, -149.000000)">
            <g id="Aggregation" transform="translate(524.000000, 149.000000)">
                <circle id="Oval" fill="#9BE5F7" cx="35" cy="35" r="35"></circle>
                <g id="Page-1" transform="translate(17.000000, 22.000000)">
                    <mask id="mask-2" fill="white">
                        <use xlink:href="#path-1"></use>
                    </mask>
                    <g id="Clip-2"></g>
                    <path d="M32.8587119,0.988511174 C32.5941986,0.329792257 32.1347392,0 31.4770923,0 L1.52202724,0 C0.867384462,0 0.406422983,0.33018571 0.140802923,0.988511174 C-0.124500923,1.68083097 -0.0147745406,2.27163991 0.469033426,2.76148883 L12.0067467,15.2525181 L12.0067467,25.8912496 C12.0067467,26.3301857 12.1551303,26.7119924 12.4507907,27.0322631 L18.4435271,33.5169972 C18.7228234,33.8390777 19.0742166,34 19.4958094,34 C19.6824549,34 19.8782707,33.9569562 20.0812803,33.8723639 C20.6899139,33.5853006 20.9942702,33.0875039 20.9942702,32.3777148 L20.9942702,15.2529116 L32.532774,2.76188228 C33.0165819,2.27163991 33.1236205,1.68083097 32.8587119,0.988511174" id="Fill-1" fill="#FF307A" mask="url(#mask-2)"></path>
                </g>
            </g>
        </g>
    </g>
</svg>