<?xml version="1.0" encoding="utf-8"?>
<!-- Generator: Adobe Illustrator 15.0.0, SVG Export Plug-In . SVG Version: 6.00 Build 0)  -->
<!DOCTYPE svg PUBLIC "-//W3C//DTD SVG 1.1//EN" "http://www.w3.org/Graphics/SVG/1.1/DTD/svg11.dtd">
<svg version="1.1" id="Layer_1" xmlns="http://www.w3.org/2000/svg" xmlns:xlink="http://www.w3.org/1999/xlink" x="0px" y="0px"
	 width="39.275px" height="39.275px" viewBox="0 0 39.275 39.275" enable-background="new 0 0 39.275 39.275" xml:space="preserve">
<circle fill="#FFFFFF" cx="19.637" cy="19.638" r="19.637"/>
<g opacity="0.3">
	<path fill="#5677FC" d="M19.637,9.011c-4.393,0-9.119,1.325-9.119,4.234V25.62c0,2.908,4.726,4.234,9.119,4.234
		c4.392,0,9.118-1.326,9.118-4.234V13.245C28.755,10.336,24.029,9.011,19.637,9.011z M27.454,25.62c0,1.618-3.5,2.932-7.816,2.932
		c-4.317,0-7.816-1.313-7.816-2.932v-2.433c1.346,1.387,4.592,2.107,7.816,2.107c3.224,0,6.471-0.721,7.816-2.107V25.62z
		 M27.454,21.712h-0.003c0,0.007,0.003,0.015,0.003,0.02c0,1.608-3.5,2.912-7.816,2.912s-7.816-1.304-7.816-2.912
		c0-0.005,0.003-0.013,0.003-0.02h-0.003v-2.433c1.346,1.387,4.592,2.107,7.816,2.107c3.224,0,6.471-0.721,7.816-2.107V21.712z
		 M27.454,17.804h-0.003c0,0.007,0.003,0.015,0.003,0.021c0,1.608-3.5,2.911-7.816,2.911s-7.816-1.303-7.816-2.911
		c0-0.006,0.003-0.014,0.003-0.021h-0.003v-2.237c1.708,1.3,4.836,1.912,7.816,1.912s6.108-0.612,7.816-1.912V17.804z
		 M19.637,16.176c-4.317,0-7.816-1.312-7.816-2.931c0-1.62,3.499-2.932,7.816-2.932c4.316,0,7.816,1.312,7.816,2.932
		C27.454,14.863,23.954,16.176,19.637,16.176z"/>
	<circle fill="#5677FC" cx="25.5" cy="25.946" r="0.651"/>
	<circle fill="#5677FC" cx="25.5" cy="22.038" r="0.651"/>
	<circle fill="#5677FC" cx="25.5" cy="18.13" r="0.651"/>
</g>
</svg>
