<?xml version="1.0" encoding="UTF-8"?>
<svg width="70px" height="70px" viewBox="0 0 70 70" version="1.1" xmlns="http://www.w3.org/2000/svg" xmlns:xlink="http://www.w3.org/1999/xlink">
    <!-- Generator: sketchtool 49.3 (51167) - http://www.bohemiancoding.com/sketch -->
    <title>E81C613B-023A-428C-9F56-93F79B64B286@3x</title>
    <desc>Created with sketchtool.</desc>
    <defs></defs>
    <g id="Page-1" stroke="none" stroke-width="1" fill="none" fill-rule="evenodd">
        <g id="Step-1---A" transform="translate(-524.000000, -130.000000)">
            <g id="Import" transform="translate(524.000000, 130.000000)">
                <circle id="Oval" fill="#9BE5F7" cx="35" cy="35" r="35"></circle>
                <path d="M50.7994137,44.3305083 C50.7994137,47.0923121 48.0593318,49.2556045 44.5610683,49.2556045 L25.2383453,49.2556045 C21.7405211,49.2556045 19,47.0923121 19,44.3305083 L19,31.0385499 C19,28.7043989 20.9605266,26.8029643 23.6787956,26.268977 C23.7966438,27.4210065 24.3071244,28.4891258 25.1472874,29.318969 L25.9482164,30.1103292 L25.2383453,30.1103292 C23.8224094,30.1103292 23.0443181,30.8076521 23.0443181,31.0385499 L23.0443181,44.3305083 C23.0443181,44.5619848 23.8224094,45.2588736 25.2383453,45.2588736 L44.5616539,45.2588736 C45.9774434,45.2588736 46.7555347,44.5614061 46.7555347,44.3305083 L46.7555347,31.0385499 C46.7555347,30.8076521 45.9774434,30.1103292 44.5616539,30.1103292 L43.9533812,30.1103292 L44.754603,29.3183903 C45.5893493,28.4940447 46.0985124,27.4334484 46.2197277,26.2889418 C48.8864655,26.8499829 50.7999992,28.7333335 50.7999992,31.0389839 L50.7999992,44.3305083 L50.7994137,44.3305083 Z M27.2913938,24.3054777 C27.6958841,23.9058914 28.2256889,23.7059536 28.7554937,23.7059536 C29.2851521,23.7059536 29.8145177,23.9058914 30.2190081,24.3054777 L32.8107915,26.8664756 L32.8107915,26.1130197 L32.8107915,16.0458181 C32.8107915,14.9157788 33.7374741,14 34.8811146,14 C36.0244623,14 36.951145,14.9157788 36.951145,16.0458181 L36.951145,26.1130197 L36.951145,27.0047828 L37.8535259,26.1130197 L39.6830287,24.3054777 C40.0875191,23.9058914 40.6168847,23.7059536 41.1465431,23.7059536 C41.6764943,23.7059536 42.206299,23.9058914 42.610643,24.3054777 C43.1082408,24.7966419 43.2972372,25.476604 43.1824633,26.1130197 C43.1824633,26.1135984 43.1820241,26.1140324 43.1820241,26.1144664 C43.1733868,26.1604724 43.1587472,26.2048869 43.147182,26.2498802 C43.1293218,26.3203358 43.1102904,26.3903575 43.0843784,26.4587877 C43.0672501,26.5047936 43.0474868,26.5496422 43.0266986,26.5946355 C42.9944916,26.6661038 42.9570144,26.7345341 42.9160237,26.8025303 C42.8943572,26.8384091 42.8740083,26.8744327 42.8497066,26.9088648 C42.7791441,27.0098464 42.7017009,27.1077899 42.610643,27.1976317 L39.6644365,30.1093165 L36.4305631,33.3051387 C36.0254871,33.7048697 35.4962679,33.9030714 34.9670487,33.9030714 L34.9518236,33.9030714 L34.9367449,33.9030714 C34.4072329,33.9030714 33.8780136,33.7048697 33.4730841,33.3051387 L30.2392107,30.1093165 L27.2930041,27.1976317 C27.2019462,27.1077899 27.1245031,27.0102804 27.0548189,26.9094435 C27.0300781,26.873854 27.0097291,26.8373964 26.9876234,26.8015176 C26.9470719,26.7341 26.9101803,26.6661038 26.8778269,26.5956482 C26.8565996,26.5496422 26.836397,26.504215 26.8191224,26.457341 C26.7943815,26.3903575 26.7756429,26.3223612 26.7579291,26.253931 C26.7459247,26.2064783 26.7302604,26.1604724 26.7216231,26.1125857 C26.6047996,25.476604 26.7935032,24.7966419 27.2913938,24.3054777 Z" id="Fill-1" fill="#FF307A"></path>
            </g>
        </g>
    </g>
</svg>