<?xml version="1.0" encoding="utf-8"?>
<!-- Generator: Adobe Illustrator 16.0.0, SVG Export Plug-In . SVG Version: 6.00 Build 0)  -->
<!DOCTYPE svg PUBLIC "-//W3C//DTD SVG 1.1//EN" "http://www.w3.org/Graphics/SVG/1.1/DTD/svg11.dtd">
<svg version="1.1" id="Layer_1" xmlns="http://www.w3.org/2000/svg" xmlns:xlink="http://www.w3.org/1999/xlink" x="0px" y="0px"
	 width="128px" height="128px" viewBox="0 0 128 128" enable-background="new 0 0 128 128" xml:space="preserve">
<path fill="#232E44" d="M50.89,0.01H7.509c-4.137,0-7.502,3.365-7.502,7.502v43.371c0,4.136,3.365,7.501,7.502,7.501H50.89
	c4.129,0,7.494-3.366,7.494-7.501V7.512C58.384,3.375,55.019,0.01,50.89,0.01z"/>
<path fill="#232E44" d="M77.124,58.384h43.382c4.136,0,7.494-3.366,7.494-7.501V7.512c0-4.137-3.358-7.502-7.494-7.502H77.124
	c-4.137,0-7.504,3.365-7.504,7.502v43.371C69.62,55.019,72.987,58.384,77.124,58.384z"/>
<path fill="#232E44" d="M50.89,69.634H7.509c-4.137,0-7.502,3.364-7.502,7.491v43.381c0,4.149,3.365,7.494,7.502,7.494H50.89
	c4.129,0,7.494-3.345,7.494-7.494V77.125C58.384,72.998,55.019,69.634,50.89,69.634z"/>
<path fill="#232E44" d="M123.812,94.559h-20.895V73.665c0-2.308-1.867-4.176-4.174-4.176s-4.182,1.869-4.182,4.176v20.893H73.673
	c-2.306,0-4.181,1.866-4.181,4.173c0,2.308,1.875,4.182,4.181,4.182H94.56v20.885c0,2.307,1.876,4.182,4.183,4.182
	s4.174-1.875,4.174-4.182v-20.885h20.895c2.306,0,4.182-1.874,4.182-4.181C127.993,96.424,126.118,94.559,123.812,94.559z"/>
</svg>
