<?xml version="1.0" encoding="utf-8"?>
<!-- Generator: Adobe Illustrator 16.0.0, SVG Export Plug-In . SVG Version: 6.00 Build 0)  -->
<!DOCTYPE svg PUBLIC "-//W3C//DTD SVG 1.1//EN" "http://www.w3.org/Graphics/SVG/1.1/DTD/svg11.dtd">
<svg version="1.1" id="Layer_1" xmlns="http://www.w3.org/2000/svg" xmlns:xlink="http://www.w3.org/1999/xlink" x="0px" y="0px"
	 width="128px" height="128px" viewBox="0 0 128 128" enable-background="new 0 0 128 128" xml:space="preserve">
<g>
	<path fill="#5677FC" d="M68.518,120.702c0.062,0,0.115-0.022,0.173-0.052c0-0.006,0.005,0,0.01-0.006l56.089-39.912
		c0.01-0.005,0.01-0.021,0.01-0.03c0.025-0.027,0.03-0.053,0.058-0.095c0.02-0.042,0.052-0.073,0.052-0.116
		c0-0.01,0.011-0.015,0.011-0.024V42.284c0-0.013-0.021-0.023-0.021-0.044c-0.01-0.026-0.021-0.058-0.026-0.087
		c-0.015-0.019-0.01-0.034-0.015-0.052c-0.005-0.008-0.027-0.008-0.027-0.01c-0.01-0.026-0.03-0.034-0.053-0.053
		c-0.02-0.008-0.02-0.026-0.03-0.031L59.66,7.635c-0.021-0.016-0.031,0-0.057-0.016c-0.037-0.011-0.078-0.011-0.11-0.005
		c-0.053,0-0.084,0.005-0.115,0.026c-0.026,0.005-0.047,0-0.058,0.008L3.212,47.507c-0.011,0.005-0.011,0.013-0.011,0.029
		c-0.021,0.01-0.032,0.031-0.047,0.05c-0.005,0.018-0.037,0.023-0.047,0.031c-0.005,0.023,0,0.034,0,0.052
		c-0.005,0.029-0.016,0.053-0.016,0.079c0,0.008-0.01,0.013-0.01,0.024v38.234c0,0.021,0.015,0.031,0.015,0.047
		c0.005,0.042,0.021,0.079,0.053,0.11c0.016,0.031,0.042,0.062,0.063,0.089c0.016,0.017,0.016,0.031,0.042,0.036l65.111,34.382
		C68.418,120.692,68.464,120.702,68.518,120.702z M59.535,8.297l7.387,3.9l-3.374-0.594c-0.016-0.007-0.016,0.011-0.032,0.005
		c-0.021,0-0.021-0.012-0.03-0.015l-3.521,0.055c-0.005,0-0.026,0.013-0.031,0.013c-0.011,0-0.011-0.008-0.026-0.003l-3.379,0.536
		c0,0.003-0.016,0.019-0.016,0.021c-0.01,0-0.025-0.011-0.037-0.003l-3.029,1.049c-0.016,0.007-0.026,0.019-0.042,0.029
		c-0.01,0.005-0.021-0.008-0.036,0.005l-2.464,1.539c-0.016,0.008-0.016,0.018-0.032,0.031c-0.005,0.005-0.026,0.005-0.041,0.018
		l-1.732,1.876c-0.005,0.013-0.005,0.031-0.021,0.05c0,0.015-0.031,0.021-0.036,0.036l-0.911,2.077
		c-0.005,0.021,0.01,0.042-0.005,0.071c0,0.021-0.021,0.039-0.021,0.06l0.026,2.134l-0.026,4.198l0,0c0,0,0,0.002,0,0.005
		l0.026,2.187c0,0.026,0.021,0.034,0.021,0.062c0.01,0.021,0,0.045,0,0.065l0.925,2.075c0,0.026,0.031,0.034,0.042,0.06
		c0,0.008,0,0.026,0.021,0.034l1.758,1.82c0.005,0.011,0.021,0.005,0.032,0.014c0.005,0.007,0.021,0.028,0.031,0.034l2.469,1.536
		c0.016,0.005,0.026,0.005,0.037,0.013c0.01,0.002,0.01,0.019,0.031,0.019l3.056,1.078c0.015,0.007,0.036,0.007,0.052,0.011
		c0.006,0,0.006,0.007,0.011,0.007l3.379,0.536c0.016,0.005,0.026,0.008,0.058,0.008l0,0h3.495l0,0c0.01,0,0.025-0.002,0.042-0.008
		l3.391-0.536c0,0,0-0.007,0.005-0.007c0.015-0.003,0.024-0.003,0.052-0.011l3.008-1.109c0.011,0,0.011-0.014,0.021-0.016
		c0.01-0.011,0.021-0.002,0.031-0.013l2.506-1.504c0.015-0.008,0.015-0.031,0.031-0.036c0.01-0.011,0.026-0.009,0.036-0.021
		l1.731-1.876c0.006-0.007,0.006-0.029,0.017-0.036c0.021-0.019,0.03-0.037,0.042-0.053l0.883-2.077
		c0.017-0.024-0.005-0.042,0-0.066c0-0.023,0.032-0.037,0.032-0.063v-6.393v-2.129c0-0.029-0.032-0.037-0.032-0.06
		c-0.005-0.029,0-0.05-0.005-0.068l-0.899-2.077c-0.01-0.019-0.037-0.026-0.048-0.042c-0.005-0.019-0.005-0.034-0.01-0.055
		l-1.104-1.13L99.315,29.31l-3.254-0.495c-0.016,0-0.021,0.005-0.032,0.005c-0.005,0-0.005-0.008-0.025-0.008h-3.516
		c-0.016,0-0.021,0.008-0.032,0.008c0,0-0.01-0.005-0.024-0.002l-3.375,0.567c-0.016,0.003-0.016,0.011-0.021,0.011
		c-0.011,0.005-0.021-0.003-0.042,0l-3.008,1.08c-0.01,0.005-0.01,0.024-0.015,0.026c-0.018,0.005-0.027,0-0.048,0.005l-2.475,1.478
		c-0.005,0.011-0.005,0.026-0.016,0.031c-0.016,0.016-0.031,0.014-0.043,0.024l-1.762,1.875c-0.011,0.016-0.005,0.04-0.016,0.058
		c-0.005,0.013-0.037,0.016-0.042,0.034l-0.89,2.077c-0.005,0.021,0.005,0.047,0,0.068c0,0.018-0.016,0.037-0.016,0.062v2.185v4.204
		v2.137c0,0.016,0.016,0.035,0.016,0.058c0.005,0.029-0.005,0.044,0,0.07l0.927,2.069c0.005,0.026,0.021,0.04,0.03,0.061
		c0.016,0.01,0,0.026,0.027,0.034l1.752,1.873c0.016,0.018,0.026,0.008,0.036,0.024c0.031,0.01,0.031,0.023,0.043,0.039l2.489,1.47
		c0.016,0.005,0.031,0.005,0.036,0.013c0.021,0.008,0.021,0.013,0.021,0.018l3.039,1.078c0.022,0.005,0.037,0.005,0.053,0.011
		c0.005,0,0.005,0.003,0.005,0.005l3.379,0.567c0.018,0.005,0.032,0.005,0.054,0.005l0,0c0.01,0,0.01,0,0.01,0l3.517-0.06l0,0
		c0.025,0,0.03,0,0.041-0.002l3.379-0.51c0.012,0,0.012-0.005,0.012-0.005c0.025-0.006,0.041-0.006,0.057-0.011l3.04-1.078
		c0.011-0.005,0.011-0.01,0.025-0.018c0.006-0.011,0.022-0.008,0.037-0.016l2.443-1.536c0.016-0.005,0.016-0.026,0.026-0.031
		c0.005-0.013,0.031-0.008,0.042-0.019l1.757-1.873c0.012-0.013,0.012-0.026,0.012-0.04c0.021-0.019,0.041-0.029,0.057-0.058
		l0.895-2.074c0.021-0.021,0-0.038,0-0.063c0.017-0.024,0.031-0.042,0.031-0.065v-6.338l0,0c0,0,0,0,0-0.002l-0.031-2.184
		c0-0.023-0.01-0.042-0.016-0.058c-0.01-0.029,0.006-0.047-0.01-0.071l-0.905-2.071c0-0.021-0.027-0.029-0.042-0.044
		c-0.011-0.016-0.011-0.037-0.021-0.056l-1.047-1.077l18.086,9.552l-55.476,39.41l-0.351-0.184c0.125-0.104,0.167-0.276,0.067-0.417
		c-0.094-0.143-0.292-0.184-0.439-0.09l-0.172,0.114c-0.026,0.021-0.026,0.053-0.058,0.079L4.028,47.732L59.535,8.297z
		 M73.874,17.104l0.849,1.959v1.999l-0.832,1.988l-1.659,1.771l-2.433,1.52l-2.956,1.031l-3.327,0.534l-3.442,0.052l-3.321-0.585
		l-3.014-1.031l-2.412-1.467l-1.684-1.803l-0.854-1.959l-0.036-1.996l0.858-1.959l1.668-1.805l2.402-1.488l2.981-1.033l3.333-0.531
		l3.464-0.054l3.327,0.585l2.976,1.033l2.407,1.467L73.874,17.104z M73.891,29.412l-1.659,1.802l-2.442,1.462l-2.946,1.086
		l-3.327,0.531h-3.442l-3.332-0.534l-3.003-1.054l-2.412-1.491l-1.684-1.752l-0.858-1.962l-0.031-2.113l0.01-2.676l0.314,0.677
		c0,0.021,0.021,0.037,0.042,0.052c0,0.013,0,0.024,0.005,0.04l1.763,1.867c0.016,0.016,0.031,0.013,0.031,0.024
		c0.032,0.011,0.032,0.031,0.042,0.037l2.469,1.504c0.016,0.008,0.026,0.005,0.037,0.01c0.01,0.006,0.01,0.019,0.031,0.023
		l3.056,1.047c0.015,0.005,0.036,0.003,0.052,0.005c0,0,0,0.007,0.006,0.007l3.379,0.597c0.016,0.002,0.031,0.002,0.052,0.002l0,0
		c0.011,0,0.011,0,0.011,0l3.495-0.052l0,0c0.01-0.002,0.025-0.002,0.042-0.002l3.385-0.544c0.006,0,0.006-0.005,0.011-0.007
		c0.015,0,0.024,0,0.036-0.005l3.019-1.047c0.005-0.005,0.016-0.023,0.026-0.026c0.005-0.005,0.021-0.002,0.036-0.01l2.501-1.564
		c0.015-0.005,0.015-0.023,0.031-0.034c0.01-0.008,0.026-0.005,0.026-0.019l1.736-1.844c0.011-0.013,0.005-0.024,0.011-0.04
		c0.021-0.021,0.041-0.031,0.053-0.057l0.256-0.615v4.716L73.891,29.412z M66.942,12.216c-0.005-0.003-0.005-0.016-0.015-0.016
		L66.942,12.216L66.942,12.216z M106.425,34.258l0.858,1.967l0.021,2.048l-0.854,1.962l-1.694,1.8l-2.37,1.436l-2.987,1.062
		l-3.322,0.555h-3.479l-3.333-0.502l-2.981-1.055l-2.428-1.496l-1.689-1.8l-0.863-1.909v-2.051l0.826-1.959l1.7-1.8l2.418-1.436
		l2.955-1.064l3.311-0.557h3.47l3.332,0.507l2.973,1.055l2.432,1.496L106.425,34.258z M68.847,82.281l55.418-39.365v37.386
		l-55.418,39.446V82.281z M3.729,48.308l64.464,34v37.531L3.729,85.807V48.308z"/>
	<path fill="#5677FC" d="M68.518,123.783c-0.476,0-1.099-0.146-1.527-0.361L1.815,89.015c-0.43-0.23-0.811-0.56-1.093-0.953
		c-0.147-0.193-0.272-0.401-0.367-0.601c-0.025-0.053-0.052-0.105-0.073-0.163C0.099,86.896,0,86.446,0,86.006V47.772
		c0-0.092,0.005-0.181,0.016-0.272c-0.011-0.197,0.026-0.28,0.083-0.547c0.131-0.597,0.435-1.135,0.874-1.553
		c0.246-0.265,0.539-0.487,0.869-0.649L57.536,5.137c0.377-0.269,0.827-0.449,1.287-0.531c0.388-0.081,0.738-0.086,1.156-0.039
		c0.549,0.062,1.088,0.274,1.533,0.604l64.672,34.112c0.23,0.121,0.445,0.272,0.639,0.447c0.225,0.188,0.423,0.408,0.592,0.654
		c0.171,0.253,0.302,0.533,0.392,0.829c0.058,0.16,0.104,0.324,0.136,0.492c0.062,0.17,0.058,0.191,0.048,0.314
		c0.005,0.086,0.01,0.175,0.01,0.264v38.183c0,0.392-0.078,0.778-0.221,1.145c-0.072,0.199-0.161,0.382-0.266,0.555
		c-0.006,0.01-0.016,0.032-0.026,0.042c-0.053,0.104-0.104,0.188-0.157,0.262c-0.188,0.282-0.424,0.527-0.695,0.732l-56.15,39.947
		C69.967,123.526,69.155,123.783,68.518,123.783z M6.812,83.95l58.3,30.777V84.164l-58.3-30.75V83.95z M71.929,83.871v29.904
		l49.255-35.062v-29.83L71.929,83.871z M67.942,77.913c0.172,0,0.355,0.015,0.534,0.058l34.108-24.233l-1.967,0.711
		c-0.1,0.034-0.209,0.068-0.324,0.094c-0.246,0.063-0.507,0.099-0.775,0.099l-2.918,0.474l-3.966,0.097
		c-0.35,0.021-0.764-0.055-1.093-0.163l-2.914-0.452c-0.299-0.05-0.591-0.145-0.864-0.282v-0.002l-2.751-0.942
		c-0.188-0.068-0.372-0.155-0.545-0.254c-0.016-0.011-0.031-0.021-0.046-0.029l-2.491-1.47c-0.146-0.087-0.288-0.183-0.413-0.293
		c-0.162-0.125-0.309-0.264-0.439-0.418l-1.658-1.769c-0.125-0.133-0.241-0.277-0.341-0.428c-0.072-0.108-0.141-0.22-0.198-0.335
		c-0.146-0.222-0.193-0.337-0.23-0.505l-0.779-1.745c-0.095-0.209-0.167-0.427-0.208-0.651c-0.022-0.097-0.038-0.199-0.048-0.301
		c-0.022-0.146-0.032-0.291-0.032-0.434v-8.525c0-0.142,0.01-0.288,0.032-0.434c0.016-0.152,0.041-0.303,0.078-0.444l0.083-0.209
		c0.012-0.024,0.018-0.047,0.027-0.068h0.005l0.932-2.265c0.062-0.154,0.146-0.303,0.235-0.447c0.031-0.047,0.058-0.092,0.089-0.136
		l0.042-0.044c0.12-0.167,0.261-0.322,0.417-0.46l1.623-1.776c0.047-0.047,0.095-0.094,0.142-0.139
		c0.171-0.172,0.365-0.324,0.58-0.449l2.474-1.479c0.08-0.043,0.157-0.085,0.236-0.125c0.01-0.005,0.021-0.01,0.032-0.015
		l0.005-0.003c0.161-0.076,0.329-0.139,0.502-0.186l2.501-0.915l-9.161-4.837v5.736c0,0.267-0.035,0.537-0.109,0.798
		c-0.042,0.183-0.1,0.364-0.173,0.536h0.006l-0.885,2.077c-0.072,0.165-0.162,0.332-0.256,0.481
		c-0.011,0.011-0.017,0.021-0.021,0.032c-0.016,0.024-0.031,0.044-0.046,0.067l-0.018,0.019c-0.141,0.198-0.329,0.405-0.502,0.562
		l-1.517,1.688c-0.105,0.107-0.214,0.212-0.329,0.306c-0.188,0.162-0.398,0.303-0.622,0.416l-2.303,1.392v-0.002
		c-0.042,0.026-0.084,0.05-0.126,0.073c-0.14,0.081-0.293,0.149-0.444,0.206l-3.008,1.109c-0.21,0.076-0.472,0.141-0.69,0.17
		l-3.338,0.536l-4.023,0.047c-0.33,0-0.712-0.062-1.026-0.164l-2.893-0.419c-0.314-0.049-0.675-0.165-0.957-0.306l-2.705-0.929
		c-0.11-0.04-0.22-0.083-0.325-0.136c-0.121-0.053-0.235-0.115-0.345-0.184l-2.469-1.536c-0.089-0.054-0.178-0.117-0.262-0.186
		c-0.141-0.102-0.271-0.214-0.387-0.337H48.68l-1.758-1.821l0.006-0.002c-0.116-0.12-0.226-0.249-0.32-0.387
		c-0.136-0.183-0.251-0.382-0.339-0.588h-0.005l-0.926-2.074c-0.12-0.272-0.199-0.558-0.241-0.851
		c-0.031-0.178-0.047-0.355-0.047-0.534l-0.026-2.149l0.021-3.056L9.893,47.345l57.95,30.573
		C67.874,77.918,67.911,77.913,67.942,77.913z M89.961,48.59c0.053,0.013,0.105,0.029,0.153,0.044l2.919,0.458l2.918-0.094
		l2.962-0.46c0.005,0,0.005,0,0.01-0.003l2.428-0.879l1.894-1.222l-2.814,1.002c-0.167,0.06-0.346,0.104-0.522,0.135l-3.322,0.555
		l-3.986,0.042l-3.793-0.539c-0.193-0.029-0.382-0.076-0.565-0.141l-2.883-1.018l0.042,0.042l1.805,1.067
		c0.158,0.05,0.299,0.11,0.429,0.183L89.961,48.59z M109.544,48.65c-0.058,0.089-0.115,0.172-0.184,0.254l-0.053,0.06l8.795-6.249
		l-7.067-3.735v5.697c0,0.248-0.037,0.502-0.1,0.751c-0.043,0.204-0.105,0.402-0.188,0.596h0.005l-0.895,2.074
		C109.773,48.289,109.669,48.475,109.544,48.65z M90.014,41.582l3.045,0.461l3.019-0.037l2.521-0.458l2.459-0.874l1.742-1.057
		l1.041-1.104l0.377-0.865l-0.012-0.767l-0.376-0.874l-1.046-1.067l-1.837-1.127l-2.385-0.848l-3.046-0.463l-2.725,0.031
		l-2.804,0.473l-2.423,0.871l-1.795,1.065l-1.02,1.083l-0.366,0.872v0.763l0.377,0.84l1.062,1.127l1.795,1.108L90.014,41.582z
		 M55.051,23.534l2.7,0.923l2.548,0.417l3.17-0.047l2.6-0.448l2.39-0.834l1.801-1.123l1.004-1.072l0.377-0.905v-0.743l-0.371-0.863
		l-1.046-1.086l-1.784-1.088l-2.663-0.927l-2.538-0.411l-3.197,0.05l-2.61,0.445l-2.417,0.84l-1.758,1.088l-1.031,1.117
		l-0.381,0.865l0.016,0.711l0.393,0.911l1.035,1.106L55.051,23.534z"/>
</g>
<g>
	<path fill="#5677FC" d="M20.089,47.546c0.005,0.026-0.005,0.053,0,0.071l0.947,2.103c0.005,0.021,0.031,0.032,0.047,0.055
		c0,0.01,0,0.026,0.005,0.034l1.736,1.847c0.006,0.013,0.031,0.007,0.042,0.018c0.01,0.011,0.01,0.029,0.031,0.037l2.501,1.506
		c0.005,0.005,0.026,0.003,0.031,0.013c0.01,0.002,0.016,0.016,0.031,0.019l2.993,1.046c0.032,0.011,0.042,0.011,0.052,0.011
		c0.005,0.002,0.005,0.008,0.011,0.008l3.411,0.541c0.01,0.002,0.042,0.002,0.052,0.002l0,0h3.495l0,0c0.01,0,0.031,0,0.052-0.002
		l3.385-0.541l0.011-0.008c0.01-0.008,0.021-0.008,0.042-0.011l3.044-1.104c0.006-0.002,0.006-0.016,0.011-0.019
		c0.015-0.005,0.026-0.003,0.036-0.013l2.47-1.504c0.031-0.011,0.031-0.026,0.042-0.037c0.01-0.011,0.021-0.005,0.026-0.019
		l1.743-1.849c0.005-0.011,0.005-0.026,0.01-0.032c0.026-0.026,0.042-0.034,0.047-0.058l0.905-2.077c0.016-0.021,0-0.042,0-0.068
		c0.016-0.021,0.037-0.037,0.037-0.062v-6.388v-2.137c0-0.024-0.021-0.038-0.037-0.061c0-0.024,0.016-0.05,0-0.068l-0.926-2.072
		c-0.021-0.021-0.037-0.024-0.042-0.04c-0.005-0.016-0.005-0.042-0.011-0.052l-1.742-1.873c-0.01-0.015-0.021-0.013-0.052-0.021
		c-0.011-0.016-0.011-0.026-0.021-0.037l-2.496-1.501c-0.015-0.008-0.02,0-0.036-0.008c-0.021-0.005-0.021-0.023-0.037-0.026
		l-3.061-1.048c-0.01-0.002-0.016,0.002-0.026,0.002c-0.011-0.002-0.011-0.023-0.032-0.023l-3.374-0.539
		c-0.016,0-0.027,0.013-0.032,0.013c-0.01,0-0.01-0.018-0.026-0.018h-3.462c-0.006,0-0.011,0.018-0.021,0.018
		c-0.016,0-0.031-0.013-0.031-0.013l-3.379,0.539c-0.005,0-0.011,0.021-0.037,0.023c0,0-0.011-0.005-0.016-0.002l-3.04,1.048
		c-0.021,0.003-0.026,0.021-0.042,0.029c0,0.006-0.016,0-0.037,0.009l-2.464,1.561c-0.01,0.006-0.01,0.029-0.025,0.034
		c-0.011,0.005-0.026,0.003-0.037,0.01l-1.758,1.852c-0.021,0.014-0.01,0.037-0.031,0.055c-0.011,0.016-0.026,0.019-0.032,0.042
		l-0.889,2.075c-0.011,0.023,0.005,0.036,0,0.065c0,0.018-0.021,0.034-0.021,0.058v2.163v4.258v2.103
		C20.068,47.512,20.084,47.526,20.089,47.546z M21.543,37.073l1.7-1.774l2.401-1.52l2.977-1.033l3.327-0.534h3.417l3.322,0.534
		l3.013,1.033l2.422,1.46l1.673,1.805l0.885,1.962v1.993l-0.847,1.965l-1.669,1.776l-2.412,1.517l-2.977,1.031l-3.328,0.583h-3.442
		l-3.343-0.583l-2.966-1.033l-2.427-1.465l-1.68-1.776l-0.879-1.961V39.03L21.543,37.073z M21.036,43.33
		c0.005,0.026,0.031,0.031,0.047,0.058c0.005,0.005,0,0.026,0.01,0.031l1.731,1.847c0.021,0.013,0.031,0.005,0.042,0.016
		c0.01,0.01,0.01,0.036,0.031,0.041l2.501,1.502c0.01,0.007,0.026,0.007,0.031,0.011c0.01,0.007,0.016,0.018,0.031,0.021
		l2.998,1.049c0.027,0.008,0.037,0.005,0.047,0.008c0.005,0,0.005,0.002,0.005,0.005l3.417,0.599
		c0.01,0.005,0.042,0.005,0.052,0.005l0,0h3.495l0,0c0.021,0,0.031,0,0.063-0.005l3.385-0.599c0-0.002,0-0.005,0.005-0.005
		c0.005-0.003,0.015,0,0.031-0.008l3.04-1.049c0.016-0.002,0.016-0.013,0.021-0.021c0.015-0.008,0.026-0.003,0.052-0.014
		l2.474-1.559c0.011-0.013,0.011-0.026,0.021-0.037c0.01-0.007,0.021-0.005,0.037-0.015l1.732-1.85
		c0.005-0.01,0.005-0.023,0.01-0.039c0.026-0.016,0.042-0.027,0.047-0.05l0.288-0.657v4.776l-0.853,1.959l-1.664,1.774l-2.412,1.465
		l-2.977,1.083l-3.328,0.537h-3.442l-3.348-0.537l-2.961-1.031l-2.427-1.461l-1.675-1.774l-0.874-1.988v-2.035v-2.752L21.036,43.33z
		"/>
	<path fill="#5677FC" d="M35.475,57.939H31.98c-0.246,0-0.549-0.034-0.79-0.094l-3.154-0.489c-0.167-0.027-0.398-0.087-0.56-0.139
		l-3.029-1.06c-0.146-0.052-0.293-0.115-0.429-0.188c-0.074-0.036-0.141-0.073-0.209-0.115v0.002l-2.501-1.509
		c-0.11-0.065-0.215-0.139-0.314-0.22c-0.146-0.11-0.288-0.23-0.413-0.364v0.002l-1.737-1.847c-0.162-0.175-0.309-0.372-0.423-0.581
		c-0.073-0.115-0.136-0.233-0.194-0.356l-0.946-2.103c-0.094-0.215-0.167-0.442-0.215-0.678c-0.005-0.037-0.016-0.073-0.021-0.11
		c-0.042-0.199-0.063-0.403-0.063-0.607v-8.524c0-0.191,0.021-0.385,0.058-0.576c0.042-0.277,0.12-0.549,0.23-0.802l0.874-2.033
		c0.078-0.185,0.178-0.363,0.288-0.528c0.11-0.17,0.235-0.33,0.372-0.474v-0.002l1.758-1.852c0.141-0.149,0.298-0.282,0.466-0.4
		c0.146-0.104,0.292-0.199,0.455-0.278l2.192-1.41c0.136-0.086,0.283-0.162,0.434-0.227c0.094-0.044,0.188-0.084,0.289-0.118
		l2.982-1.031c0.204-0.078,0.413-0.136,0.627-0.17l3.38-0.539c0.073-0.011,0.146-0.021,0.214-0.026
		c0.11-0.011,0.215-0.019,0.325-0.019h3.462c0.299,0,0.592,0.045,0.869,0.128l3.05,0.456c0.204,0.034,0.408,0.089,0.602,0.162
		l3.03,1.036c0.109,0.036,0.219,0.083,0.324,0.133c0.042,0.019,0.084,0.037,0.125,0.058l0.11,0.067
		c0.016,0.008,0.031,0.016,0.042,0.023l2.558,1.528c0.173,0.104,0.334,0.227,0.487,0.366c0.214,0.183,0.408,0.392,0.56,0.625
		l1.433,1.48c0.172,0.186,0.325,0.392,0.445,0.617c0.062,0.102,0.114,0.207,0.167,0.314l0.857,1.927
		c0.314,0.462,0.372,0.9,0.372,1.531v8.524c0,0.295-0.047,0.596-0.136,0.884c-0.042,0.162-0.094,0.322-0.162,0.476h0.005
		l-0.91,2.077c-0.068,0.157-0.146,0.306-0.241,0.45c-0.11,0.188-0.246,0.363-0.392,0.52l-1.748,1.85
		c-0.1,0.106-0.204,0.203-0.32,0.295c-0.12,0.102-0.25,0.196-0.387,0.277v0.003l-2.469,1.504v-0.002
		c-0.33,0.201-0.696,0.342-1.073,0.411l-2.569,0.991c-0.037,0.013-0.073,0.026-0.11,0.036c-0.167,0.058-0.335,0.1-0.507,0.129
		l-3.385,0.542C35.852,57.923,35.637,57.939,35.475,57.939z M27.016,43.45l2.663,0.929l2.856,0.458l2.914-0.047l2.793-0.536
		l2.15-0.78l1.8-1.13l1.025-1.096l0.382-0.885v-0.696l-0.403-0.896l-1.036-1.117l-1.769-1.067l-2.705-0.927l-2.809-0.405
		l-2.663,0.034l-2.841,0.456l-2.385,0.829l-1.784,1.127l-1.047,1.096l-0.366,0.861v0.734l0.392,0.885l1.036,1.093L27.016,43.45z"/>
</g>
<g>
	<path fill="#5677FC" d="M52.624,64.776l0.937,2.082c0.01,0.016,0.026,0.027,0.047,0.053c0.011,0.005,0.011,0.021,0.011,0.032
		l1.758,1.872c0.021,0.011,0.036,0.006,0.052,0.016c0.011,0.016,0.011,0.031,0.016,0.037l2.474,1.506
		c0.016,0.011,0.026,0.011,0.038,0.011c0.015,0.011,0.015,0.016,0.036,0.021l3.055,1.052c0.026,0.005,0.031,0.005,0.037,0.005
		c0.011,0,0.011,0.006,0.011,0.012l3.384,0.597c0.022,0,0.042,0,0.064,0l0,0h3.483l0,0c0.021,0,0.042,0,0.063,0l3.379-0.597
		c0-0.006,0-0.012,0.006-0.012c0.021,0,0.035,0,0.042-0.005l3.033-1.052c0.017-0.005,0.017-0.021,0.031-0.021
		c0.017-0.005,0.027-0.005,0.048-0.011l2.464-1.569c0.016,0,0.016-0.021,0.032-0.025c0.005-0.011,0.024-0.005,0.036-0.017
		l1.758-1.852c0.011-0.011,0.011-0.025,0.016-0.037c0.021-0.016,0.037-0.035,0.047-0.057l0.879-2.104c0.011-0.023,0-0.042,0-0.063
		c0.011-0.025,0.031-0.042,0.031-0.059V58.25v-2.185c0-0.026-0.021-0.044-0.031-0.062c0-0.029,0.011-0.053,0-0.076l-0.941-2.017
		c0-0.016-0.037-0.019-0.042-0.034c-0.005-0.016-0.005-0.042-0.016-0.053l-1.758-1.849c-0.011-0.011-0.031-0.005-0.042-0.013
		c-0.006-0.01-0.006-0.026-0.016-0.037l-2.479-1.554c-0.017-0.016-0.026-0.011-0.037-0.016c-0.011-0.005-0.016-0.018-0.026-0.026
		l-3.045-1.049c-0.005-0.005-0.016,0.002-0.025,0c-0.005-0.005-0.015-0.013-0.027-0.013L68,48.726c-0.021,0-0.021,0.005-0.032,0.005
		c-0.005,0-0.005-0.008-0.025-0.008h-3.49c-0.01,0-0.01,0.008-0.031,0.008c-0.011,0.002-0.017-0.005-0.026-0.003l-3.38,0.597
		c-0.01,0-0.01,0.011-0.031,0.014c0,0-0.01-0.009-0.016-0.003l-3.039,1.051c-0.016,0.007-0.016,0.019-0.032,0.026
		c-0.005,0.005-0.016,0-0.042,0.005l-2.458,1.504c-0.021,0.01-0.021,0.029-0.037,0.039c-0.011,0.008-0.021,0.008-0.037,0.018
		l-1.736,1.85c-0.016,0.011-0.005,0.034-0.016,0.05c-0.01,0.015-0.031,0.018-0.047,0.036l-0.9,2.075c-0.021,0.023,0,0.047,0,0.071
		c-0.011,0.029-0.031,0.036-0.031,0.06v2.189v4.203v2.132c0,0.026,0.021,0.04,0.031,0.063
		C52.634,64.731,52.603,64.753,52.624,64.776z M54.104,54.229l1.658-1.773l2.407-1.462l2.982-1.03l3.327-0.586h3.443l3.354,0.528
		l2.977,1.026l2.407,1.522l1.7,1.781l0.878,1.904v2.046l-0.821,1.964l-1.7,1.794l-2.396,1.441l-2.992,1.057l-3.322,0.594h-3.441
		l-3.328-0.537l-3.009-1.054l-2.396-1.497l-1.706-1.75l-0.884-1.959v-2.051L54.104,54.229z M53.561,60.515
		c0.01,0.023,0.026,0.034,0.047,0.055c0.011,0.016,0.011,0.029,0.011,0.037l1.758,1.818c0.021,0.013,0.036,0.011,0.042,0.019
		c0.016,0.005,0.016,0.026,0.026,0.034l2.469,1.535c0.016,0.005,0.026,0.002,0.036,0.008c0.021,0.002,0.021,0.023,0.032,0.023
		l3.066,1.077c0.01,0.01,0.026,0.01,0.042,0.01c0.006,0.002,0.006,0.005,0.006,0.005l3.384,0.538
		c0.022,0.003,0.042,0.005,0.064,0.005l0,0h3.483l0,0c0.021,0,0.042-0.002,0.063-0.005l3.379-0.596c0,0,0-0.008,0.006-0.008
		c0.021,0,0.035,0,0.047-0.006l3.028-1.078c0.017-0.005,0.017-0.018,0.026-0.018c0.005-0.005,0.032-0.005,0.032-0.008l2.484-1.483
		c0.011-0.008,0.011-0.029,0.021-0.04c0.017-0.01,0.036-0.002,0.048-0.016l1.758-1.875c0.011-0.011,0.011-0.026,0.016-0.04
		c0.021-0.018,0.037-0.026,0.042-0.052l0.261-0.609v4.676l-0.832,1.98l-1.694,1.778l-2.406,1.518l-2.977,1.036L68,71.421h-3.437
		l-3.328-0.586l-3.014-1.036l-2.417-1.464l-1.68-1.801l-0.884-1.961v-2.06v-2.699L53.561,60.515z"/>
	<path fill="#5677FC" d="M68.025,75.156h-3.483c-0.053-0.01-0.55-0.042-0.602-0.053l-3.385-0.597
		c-0.11-0.021-0.215-0.047-0.319-0.078c-0.026-0.005-0.052-0.016-0.078-0.021l-3.17-1.093c-0.188-0.063-0.376-0.146-0.549-0.251
		c-0.058-0.021-0.105-0.041-0.121-0.053l-2.475-1.506c-0.13-0.084-0.251-0.168-0.366-0.263c-0.125-0.099-0.24-0.209-0.345-0.319
		l-1.758-1.873c-0.146-0.15-0.272-0.318-0.382-0.496c-0.036-0.053-0.074-0.109-0.099-0.161l-1.078-2.351h0.005
		c-0.089-0.195-0.157-0.399-0.204-0.609c-0.067-0.259-0.104-0.524-0.104-0.787v-8.524c0-0.272,0.037-0.544,0.11-0.811
		c0.047-0.186,0.104-0.369,0.178-0.544v-0.002l0.899-2.074c0.105-0.243,0.241-0.473,0.408-0.683
		c0.074-0.099,0.152-0.193,0.236-0.285l1.737-1.849c0.125-0.136,0.261-0.256,0.413-0.366c0.162-0.133,0.345-0.246,0.528-0.34
		l2.229-1.376c0.277-0.167,0.581-0.293,0.895-0.369l2.82-0.997c0.125-0.044,0.251-0.078,0.382-0.104
		c0.042-0.011,0.089-0.018,0.136-0.029l3.38-0.596c0.089-0.016,0.183-0.026,0.277-0.035c0.104-0.012,0.208-0.018,0.313-0.018h3.49
		c0.288,0,0.58,0.042,0.857,0.123l3.086,0.46c0.085,0.013,0.169,0.031,0.251,0.05c0.111,0.026,0.216,0.055,0.319,0.092l3.051,1.051
		c0.257,0.089,0.502,0.212,0.728,0.364l2.448,1.533c0.146,0.091,0.282,0.196,0.414,0.314c0.062,0.052,0.125,0.109,0.182,0.167
		l1.815,1.907c0.142,0.149,0.273,0.319,0.383,0.499c0.089,0.128,0.161,0.265,0.229,0.406h0.005l0.941,2.017
		c0.011,0.029,0.027,0.058,0.037,0.087c0.246,0.421,0.283,0.802,0.283,1.354v8.526c0,0.07-0.006,0.143-0.011,0.216
		c0.058,0.479-0.063,0.654-0.287,1.162l-0.854,2.035c-0.067,0.172-0.161,0.34-0.272,0.507c-0.13,0.21-0.283,0.408-0.455,0.581
		l-1.7,1.794c-0.157,0.157-0.324,0.304-0.508,0.424c-0.047,0.037-0.094,0.069-0.141,0.095v0.005l-2.465,1.564
		c-0.203,0.13-0.423,0.236-0.653,0.313c-0.188,0.068-0.376,0.121-0.57,0.151l-2.533,0.926c-0.224,0.08-0.459,0.131-0.705,0.163
		l-3.19,0.575C68.449,75.135,68.208,75.156,68.025,75.156z M61.994,61.501l3.061,0.492l2.657-0.034l3.071-0.549l2.197-0.813
		l1.788-1.075l1.021-1.08l0.365-0.874v-0.75l-0.382-0.827l-1.083-1.135l-1.784-1.127l-2.381-0.821l-3.086-0.487l-2.674,0.034
		l-3.081,0.544l-2.176,0.787l-1.784,1.083l-1.015,1.082l-0.388,0.887v0.74l0.388,0.86l1.067,1.094l1.789,1.12L61.994,61.501z"/>
</g>
</svg>
