<?xml version="1.0" encoding="utf-8"?>
<!-- Generator: Adobe Illustrator 19.2.0, SVG Export Plug-In . SVG Version: 6.00 Build 0)  -->
<svg version="1.1" id="Layer_1" xmlns="http://www.w3.org/2000/svg" xmlns:xlink="http://www.w3.org/1999/xlink" x="0px" y="0px"
	 viewBox="0 0 39 39" style="enable-background:new 0 0 39 39;" xml:space="preserve">
<style type="text/css">
	.st0{opacity:0.5;}
	.st1{filter:url(#Adobe_OpacityMaskFilter);}
	.st2{fill:#FFFFFF;}
	.st3{mask:url(#mask-2);fill:#FFFFFF;}
</style>
<title>0BA2BF95-0ED3-4D35-A8D2-345C03475D56@3x</title>
<desc>Created with sketchtool.</desc>
<g id="Website" class="st0">
	<g id="Appbase.io-_x2F_-Support" transform="translate(-198.000000, -663.000000)">
		<g>
			<g id="Group-3" transform="translate(0.000000, 0.099455)">
				<g id="Clip-2">
				</g>
				<defs>
					<filter id="Adobe_OpacityMaskFilter" filterUnits="userSpaceOnUse" x="198.4" y="663.3" width="38.3" height="38.3">
						<feColorMatrix  type="matrix" values="1 0 0 0 0  0 1 0 0 0  0 0 1 0 0  0 0 0 1 0"/>
					</filter>
				</defs>
				<mask maskUnits="userSpaceOnUse" x="198.4" y="663.3" width="38.3" height="38.3" id="mask-2">
					<g class="st1">
						<polygon id="path-1" class="st2" points="198.4,663.3 236.6,663.3 236.6,701.5 198.4,701.5 						"/>
					</g>
				</mask>
				<path id="Fill-1" class="st3" d="M217.5,700.5c-10,0-18.1-8.1-18.1-18.1c0-10,8.1-18.1,18.1-18.1c10,0,18.1,8.1,18.1,18.1
					C235.6,692.4,227.5,700.5,217.5,700.5 M217.5,663.3c-10.6,0-19.1,8.6-19.1,19.1c0,10.6,8.6,19.1,19.1,19.1
					c10.6,0,19.1-8.6,19.1-19.1C236.6,671.8,228.1,663.3,217.5,663.3"/>
			</g>
			<path id="Fill-4" class="st2" d="M216.4,685.2c-0.4-0.6-1-1.1-1.8-1.4l0.5-3.3c0.1,0,0.1,0,0.2,0c1.1,0,2.1-0.7,2.5-1.7l6,1.6
				c0,0.1,0,0.3,0,0.4c0,0.2,0,0.3,0.1,0.5L216.4,685.2z M225.7,679c-0.6,0-1.2,0.3-1.5,0.8l-6.1-1.7c0-0.1,0-0.2,0-0.4
				c0-1.5-1.2-2.7-2.7-2.7s-2.7,1.2-2.7,2.7c0,1.2,0.8,2.2,1.8,2.5l-0.5,3.3c-0.3-0.1-0.5-0.1-0.8-0.1c-2.1,0-3.8,1.7-3.8,3.8
				c0,2.1,1.7,3.8,3.8,3.8c2.1,0,3.8-1.7,3.8-3.8c0-0.5-0.1-1.1-0.3-1.5l7.4-3.9c0.3,0.5,0.9,0.8,1.5,0.8c1,0,1.8-0.8,1.8-1.8
				C227.5,679.8,226.7,679,225.7,679z"/>
		</g>
	</g>
</g>
</svg>
