<?xml version="1.0" encoding="UTF-8"?>
<svg width="208px" height="43px" viewBox="0 0 208 43" version="1.1" xmlns="http://www.w3.org/2000/svg" xmlns:xlink="http://www.w3.org/1999/xlink">
    <!-- Generator: sketchtool 52.4 (67378) - http://www.bohemiancoding.com/sketch -->
    <title>548520F8-1E6E-461D-9BA8-7359529A41A8@3x</title>
    <desc>Created with sketchtool.</desc>
    <defs>
        <polygon id="path-1" points="0 0.891 42.1097 0.891 42.1097 43 0 43"></polygon>
    </defs>
    <g id="Website" stroke="none" stroke-width="1" fill="none" fill-rule="evenodd">
        <g id="Reactive-Search-Page" transform="translate(-41.000000, -28.000000)">
            <g id="Navbar" transform="translate(39.000000, 26.000000)">
                <g id="Logo_Appbase" transform="translate(2.000000, 2.000000)">
                    <g transform="translate(0.000000, -1.000000)">
                        <g id="Group-3" transform="translate(0.000000, 0.109400)">
                            <mask id="mask-2" fill="white">
                                <use xlink:href="#path-1"></use>
                            </mask>
                            <g id="Clip-2"></g>
                            <path d="M21.0547,41.8252 C10.0727,41.8252 1.1727,32.9252 1.1727,21.9462 C1.1727,10.9662 10.0727,2.0642 21.0547,2.0642 C32.0317,2.0642 40.9337,10.9662 40.9337,21.9462 C40.9337,32.9252 32.0317,41.8252 21.0547,41.8252 M21.0547,0.8902 C9.4267,0.8902 -0.0003,10.3162 -0.0003,21.9462 C-0.0003,33.5732 9.4267,43.0002 21.0547,43.0002 C32.6817,43.0002 42.1097,33.5732 42.1097,21.9462 C42.1097,10.3162 32.6817,0.8902 21.0547,0.8902" id="Fill-1" fill="#232E44" mask="url(#mask-2)"></path>
                        </g>
                        <path d="M19.8799,25.0303 C19.4139,24.3253 18.7439,23.7733 17.9539,23.4493 L18.5359,19.8043 C18.6189,19.8103 18.6999,19.8133 18.7859,19.8133 C20.0319,19.8133 21.0949,19.0483 21.5309,17.9613 L28.0829,19.7633 C28.0509,19.9083 28.0299,20.0643 28.0299,20.2193 C28.0299,20.3933 28.0549,20.5623 28.0959,20.7263 L19.8799,25.0303 Z M30.0469,18.2003 C29.3499,18.2003 28.7339,18.5573 28.3719,19.0963 L21.7169,17.2683 C21.7349,17.1313 21.7479,16.9943 21.7479,16.8583 C21.7479,15.2173 20.4209,13.8923 18.7859,13.8923 C17.1509,13.8923 15.8249,15.2173 15.8249,16.8583 C15.8249,18.1563 16.6649,19.2583 17.8329,19.6553 L17.2609,23.2353 C16.9739,23.1723 16.6749,23.1363 16.3629,23.1363 C14.0319,23.1363 12.1459,25.0253 12.1459,27.3543 C12.1459,29.6843 14.0319,31.5733 16.3629,31.5733 C18.6909,31.5733 20.5829,29.6843 20.5829,27.3543 C20.5829,26.7503 20.4539,26.1793 20.2249,25.6593 L28.3969,21.3773 C28.7609,21.8973 29.3659,22.2373 30.0469,22.2373 C31.1669,22.2373 32.0699,21.3343 32.0699,20.2193 C32.0699,19.1053 31.1669,18.2003 30.0469,18.2003 Z" id="Fill-4" fill="#232E44"></path>
                        <path d="M56.8516,12.7979 C54.8306,13.0689 53.5626,14.2319 53.5626,14.2319 L54.5486,15.8869 C54.5486,15.8869 56.8046,13.9539 60.6736,14.5589 C62.7696,14.8849 64.2926,16.1769 64.4856,20.2449 C64.4856,20.2449 52.7776,18.6279 51.8996,24.5859 C50.8376,31.8049 58.2796,32.5009 62.2226,31.2589 C65.1056,30.3499 65.7616,28.3119 66.1286,26.8839 C66.6926,24.7009 66.5306,21.3009 66.1486,18.4629 C65.9886,17.2569 65.6696,11.6189 56.8516,12.7979 M62.4456,29.3029 C59.7176,30.5329 55.7596,30.3099 54.0736,28.2099 C53.0016,26.8699 52.9376,23.0309 57.2306,22.1579 C61.6116,21.2669 64.4946,22.1579 64.4946,22.1579 C64.4946,22.1579 65.3046,28.0139 62.4456,29.3029" id="Fill-6" fill="#232E44"></path>
                        <path d="M131.1611,12.7979 C129.1441,13.0689 127.8711,14.2319 127.8711,14.2319 L128.8591,15.8869 C128.8591,15.8869 131.1201,13.9539 134.9841,14.5589 C137.0801,14.8849 138.6051,16.1769 138.8011,20.2449 C138.8011,20.2449 127.0881,18.6279 126.2121,24.5859 C125.1481,31.8049 132.5901,32.5009 136.5351,31.2589 C139.4181,30.3499 140.0741,28.3119 140.4401,26.8839 C141.0061,24.7009 140.8441,21.3009 140.4631,18.4629 C140.2991,17.2569 139.9821,11.6189 131.1611,12.7979 M136.7591,29.3029 C134.0301,30.5329 130.0701,30.3099 128.3861,28.2099 C127.3151,26.8699 127.2491,23.0309 131.5431,22.1579 C135.9241,21.2669 138.8081,22.1579 138.8081,22.1579 C138.8081,22.1579 139.6151,28.0139 136.7591,29.3029" id="Fill-8" fill="#232E44"></path>
                        <path d="M154.375,15.8018 C154.375,15.8018 151.963,13.2998 148.564,14.6508 C147.019,15.2648 146.368,16.8768 146.68,18.0818 C147.059,19.5288 148.5,20.4838 150.387,20.9808 C154.678,22.1098 155.818,23.6948 156.1,25.7098 C156.51,28.6588 154.187,31.6878 150.764,31.7038 C146.572,31.7208 144.158,28.8228 144.158,28.8228 L145.687,27.5308 C145.687,27.5308 151.008,32.3718 154.039,28.0158 C154.899,26.7808 154.684,24.3098 151.648,23.1828 C148.168,21.8888 145.391,21.2468 144.803,18.4548 C143.738,13.4248 150.441,10.5598 155.547,14.5318 L154.375,15.8018 Z" id="Fill-10" fill="#232E44"></path>
                        <path d="M173.6953,28.6826 C170.0453,30.8536 166.0883,30.2056 164.2423,29.0806 C161.1703,27.1986 161.1813,23.2796 161.1813,23.2796 L175.2423,23.2926 C175.4003,22.3916 175.3043,20.4706 175.2423,19.5316 C174.9653,15.4456 172.2663,12.7496 167.6993,12.6986 C162.8143,12.6436 160.0923,16.4056 159.5563,19.8436 C158.5353,26.3906 160.7953,31.6586 168.5903,31.6976 C172.7053,31.7186 174.5493,30.1596 174.5493,30.1596 L173.6953,28.6826 Z M167.6683,14.3186 C174.3243,14.3836 173.7073,21.7306 173.7073,21.7306 L161.2033,21.7306 C161.2033,20.7666 162.1323,14.2666 167.6683,14.3186 Z" id="Fill-12" fill="#232E44"></path>
                        <path d="M122.3105,27.4292 C123.4375,24.8592 123.7265,19.8672 122.0395,16.7492 C120.7105,14.2932 118.4645,12.8102 115.1415,12.8102 C111.4155,12.8102 109.7055,14.2562 109.7055,14.2562 L109.7055,6.2622 L107.7735,6.2622 L107.7735,14.5352 L107.7735,23.3542 C107.7735,25.7322 108.4965,28.1372 109.8105,29.6412 C110.9605,30.9572 113.4155,32.1862 116.8435,31.6142 C119.8375,31.1172 121.3315,29.6742 122.3105,27.4292 M115.6965,30.1302 C111.0465,30.4362 109.9805,26.3602 109.8805,25.4892 C109.6555,23.4652 109.7055,19.9592 109.7595,16.4122 C109.7595,16.4122 111.2755,14.2832 115.6165,14.5762 C119.2035,14.8192 121.5565,17.0522 121.4355,22.2002 C121.3285,26.6872 120.1995,29.8262 115.6965,30.1302" id="Fill-14" fill="#232E44"></path>
                        <path d="M79.123,12.8516 C75.695,12.2816 73.271,13.5116 72.117,14.8266 C70.803,16.3306 70.131,18.7356 70.131,21.1106 L70.131,29.9306 L70.131,38.1686 L72.066,38.1686 L72.066,30.2126 C72.066,30.2126 73.723,31.6536 77.447,31.6536 C80.771,31.6536 82.963,30.1746 84.293,27.7176 C85.978,24.5986 85.685,19.6076 84.563,17.0396 C83.582,14.7936 82.119,13.3476 79.123,12.8516 M83.687,22.2656 C83.811,27.4136 81.455,29.6466 77.869,29.8886 C73.528,30.1796 72.016,28.0496 72.016,28.0496 C71.961,24.5036 71.908,20.9996 72.137,18.9736 C72.233,18.1016 73.301,14.0246 77.95,14.3356 C82.453,14.6386 83.579,17.7816 83.687,22.2656" id="Fill-16" fill="#232E44"></path>
                        <path d="M97.7808,12.8516 C94.3538,12.2816 91.9278,13.5116 90.7758,14.8266 C89.4578,16.3306 88.7898,18.7356 88.7898,21.1106 L88.7898,29.9306 L88.7898,38.1686 L90.7268,38.1686 L90.7268,30.2126 C90.7268,30.2126 92.3828,31.6536 96.1058,31.6536 C99.4318,31.6536 101.6228,30.1746 102.9508,27.7176 C104.6378,24.5986 104.3458,19.6076 103.2208,17.0396 C102.2398,14.7936 100.7758,13.3476 97.7808,12.8516 M102.3478,22.2656 C102.4708,27.4136 100.1138,29.6466 96.5288,29.8886 C92.1868,30.1796 90.6718,28.0496 90.6718,28.0496 C90.6188,24.5036 90.5678,20.9996 90.7948,18.9736 C90.8928,18.1016 91.9588,14.0246 96.6088,14.3356 C101.1138,14.6386 102.2388,17.7816 102.3478,22.2656" id="Fill-18" fill="#232E44"></path>
                        <polygon id="Fill-20" fill="#232E44" points="184.982 9.4864 186.275 9.4864 186.275 5.9424 184.982 5.9424"></polygon>
                        <polygon id="Fill-22" fill="#232E44" points="179.539 31.7204 180.829 31.7204 180.829 28.1754 179.539 28.1754"></polygon>
                        <polygon id="Fill-23" fill="#232E44" points="184.982 31.7204 186.275 31.7204 186.275 12.7084 184.982 12.7084"></polygon>
                        <path d="M198.5293,12.709 C193.8143,12.709 189.9883,16.938 189.9883,22.158 C189.9883,27.376 193.8123,31.606 198.5293,31.606 C203.2483,31.606 207.0703,27.376 207.0703,22.158 C207.0703,16.938 203.2483,12.709 198.5293,12.709 M198.5293,30.3 C194.5003,30.3 191.2353,26.688 191.2353,22.23 C191.2353,17.771 194.5003,14.159 198.5293,14.159 C202.5583,14.159 205.8243,17.771 205.8243,22.23 C205.8243,26.688 202.5583,30.3 198.5293,30.3" id="Fill-24" fill="#232E44"></path>
                    </g>
                </g>
            </g>
        </g>
    </g>
</svg>