<?xml version="1.0" encoding="UTF-8"?>
<svg width="189px" height="40px" viewBox="0 0 189 40" version="1.1" xmlns="http://www.w3.org/2000/svg" xmlns:xlink="http://www.w3.org/1999/xlink">
    <!-- Generator: sketchtool 50.2 (55047) - http://www.bohemiancoding.com/sketch -->
    <title>0BA2BF95-0ED3-4D35-A8D2-345C03475D56@3x</title>
    <desc>Created with sketchtool.</desc>
    <defs>
        <polygon id="path-1" points="0 0.81 38.2815455 0.81 38.2815455 39.0909091 0 39.0909091"></polygon>
    </defs>
    <g id="Website" stroke="none" stroke-width="1" fill="none" fill-rule="evenodd" opacity="0.5">
        <g id="Appbase.io-/-Support" transform="translate(-198.000000, -663.000000)">
            <g id="Logo_Appbase" transform="translate(198.000000, 663.000000)">
                <g>
                    <g id="Group-3" transform="translate(0.000000, 0.099455)">
                        <mask id="mask-2" fill="white">
                            <use xlink:href="#path-1"></use>
                        </mask>
                        <g id="Clip-2"></g>
                        <path d="M19.1406364,38.0229091 C9.157,38.0229091 1.06609091,29.932 1.06609091,19.9510909 C1.06609091,9.96927273 9.157,1.87654545 19.1406364,1.87654545 C29.1197273,1.87654545 37.2124545,9.96927273 37.2124545,19.9510909 C37.2124545,29.932 29.1197273,38.0229091 19.1406364,38.0229091 M19.1406364,0.809272727 C8.56972727,0.809272727 -0.000272727273,9.37836364 -0.000272727273,19.9510909 C-0.000272727273,30.5210909 8.56972727,39.0910909 19.1406364,39.0910909 C29.7106364,39.0910909 38.2815455,30.5210909 38.2815455,19.9510909 C38.2815455,9.37836364 29.7106364,0.809272727 19.1406364,0.809272727" id="Fill-1" fill="#232E44" mask="url(#mask-2)"></path>
                    </g>
                    <path d="M18.0726364,22.7548182 C17.649,22.1139091 17.0399091,21.6120909 16.3217273,21.3175455 L16.8508182,18.0039091 C16.9262727,18.0093636 16.9999091,18.0120909 17.0780909,18.0120909 C18.2108182,18.0120909 19.1771818,17.3166364 19.5735455,16.3284545 L25.5299091,17.9666364 C25.5008182,18.0984545 25.4817273,18.2402727 25.4817273,18.3811818 C25.4817273,18.5393636 25.5044545,18.693 25.5417273,18.8420909 L18.0726364,22.7548182 Z M27.3153636,16.5457273 C26.6817273,16.5457273 26.1217273,16.8702727 25.7926364,17.3602727 L19.7426364,15.6984545 C19.759,15.5739091 19.7708182,15.4493636 19.7708182,15.3257273 C19.7708182,13.8339091 18.5644545,12.6293636 17.0780909,12.6293636 C15.5917273,12.6293636 14.3862727,13.8339091 14.3862727,15.3257273 C14.3862727,16.5057273 15.1499091,17.5075455 16.2117273,17.8684545 L15.6917273,21.123 C15.4308182,21.0657273 15.159,21.033 14.8753636,21.033 C12.7562727,21.033 11.0417273,22.7502727 11.0417273,24.8675455 C11.0417273,26.9857273 12.7562727,28.703 14.8753636,28.703 C16.9917273,28.703 18.7117273,26.9857273 18.7117273,24.8675455 C18.7117273,24.3184545 18.5944545,23.7993636 18.3862727,23.3266364 L25.8153636,19.4339091 C26.1462727,19.9066364 26.6962727,20.2157273 27.3153636,20.2157273 C28.3335455,20.2157273 29.1544545,19.3948182 29.1544545,18.3811818 C29.1544545,17.3684545 28.3335455,16.5457273 27.3153636,16.5457273 Z" id="Fill-4" fill="#232E44"></path>
                    <path d="M51.6832727,11.6344545 C49.846,11.8808182 48.6932727,12.9380909 48.6932727,12.9380909 L49.5896364,14.4426364 C49.5896364,14.4426364 51.6405455,12.6853636 55.1578182,13.2353636 C57.0632727,13.5317273 58.4478182,14.7062727 58.6232727,18.4044545 C58.6232727,18.4044545 47.9796364,16.9344545 47.1814545,22.3508182 C46.216,28.9135455 52.9814545,29.5462727 56.566,28.4171818 C59.1869091,27.5908182 59.7832727,25.7380909 60.1169091,24.4399091 C60.6296364,22.4553636 60.4823636,19.3644545 60.1350909,16.7844545 C59.9896364,15.6880909 59.6996364,10.5626364 51.6832727,11.6344545 M56.7687273,26.639 C54.2887273,27.7571818 50.6905455,27.5544545 49.1578182,25.6453636 C48.1832727,24.4271818 48.1250909,20.9371818 52.0278182,20.1435455 C56.0105455,19.3335455 58.6314545,20.1435455 58.6314545,20.1435455 C58.6314545,20.1435455 59.3678182,25.4671818 56.7687273,26.639" id="Fill-6" fill="#232E44"></path>
                    <path d="M119.237364,11.6344545 C117.403727,11.8808182 116.246455,12.9380909 116.246455,12.9380909 L117.144636,14.4426364 C117.144636,14.4426364 119.200091,12.6853636 122.712818,13.2353636 C124.618273,13.5317273 126.004636,14.7062727 126.182818,18.4044545 C126.182818,18.4044545 115.534636,16.9344545 114.738273,22.3508182 C113.771,28.9135455 120.536455,29.5462727 124.122818,28.4171818 C126.743727,27.5908182 127.340091,25.7380909 127.672818,24.4399091 C128.187364,22.4553636 128.040091,19.3644545 127.693727,16.7844545 C127.544636,15.6880909 127.256455,10.5626364 119.237364,11.6344545 M124.326455,26.639 C121.845545,27.7571818 118.245545,27.5544545 116.714636,25.6453636 C115.741,24.4271818 115.681,20.9371818 119.584636,20.1435455 C123.567364,19.3335455 126.189182,20.1435455 126.189182,20.1435455 C126.189182,20.1435455 126.922818,25.4671818 124.326455,26.639" id="Fill-8" fill="#232E44"></path>
                    <path d="M140.340909,14.3652727 C140.340909,14.3652727 138.148182,12.0907273 135.058182,13.3189091 C133.653636,13.8770909 133.061818,15.3425455 133.345455,16.438 C133.69,17.7534545 135,18.6216364 136.715455,19.0734545 C140.616364,20.0998182 141.652727,21.5407273 141.909091,23.3725455 C142.281818,26.0534545 140.17,28.8070909 137.058182,28.8216364 C133.247273,28.8370909 131.052727,26.2025455 131.052727,26.2025455 L132.442727,25.028 C132.442727,25.028 137.28,29.4289091 140.035455,25.4689091 C140.817273,24.3461818 140.621818,22.0998182 137.861818,21.0752727 C134.698182,19.8989091 132.173636,19.3152727 131.639091,16.7770909 C130.670909,12.2043636 136.764545,9.59981818 141.406364,13.2107273 L140.340909,14.3652727 Z" id="Fill-10" fill="#232E44"></path>
                    <path d="M157.904818,26.0750909 C154.586636,28.0487273 150.989364,27.4596364 149.311182,26.4369091 C146.518455,24.726 146.528455,21.1632727 146.528455,21.1632727 L159.311182,21.1750909 C159.454818,20.356 159.367545,18.6096364 159.311182,17.756 C159.059364,14.0414545 156.605727,11.5905455 152.453909,11.5441818 C148.013,11.4941818 145.538455,14.9141818 145.051182,18.0396364 C144.123,23.9914545 146.177545,28.7805455 153.263909,28.816 C157.004818,28.8350909 158.681182,27.4178182 158.681182,27.4178182 L157.904818,26.0750909 Z M152.425727,13.0169091 C158.476636,13.076 157.915727,19.7550909 157.915727,19.7550909 L146.548455,19.7550909 C146.548455,18.8787273 147.393,12.9696364 152.425727,13.0169091 Z" id="Fill-12" fill="#232E44"></path>
                    <path d="M111.191364,24.9356364 C112.215909,22.5992727 112.478636,18.0610909 110.945,15.2265455 C109.736818,12.9938182 107.695,11.6456364 104.674091,11.6456364 C101.286818,11.6456364 99.7322727,12.9601818 99.7322727,12.9601818 L99.7322727,5.69290909 L97.9759091,5.69290909 L97.9759091,13.2138182 L97.9759091,21.2310909 C97.9759091,23.3929091 98.6331818,25.5792727 99.8277273,26.9465455 C100.873182,28.1429091 103.105,29.2601818 106.221364,28.7401818 C108.943182,28.2883636 110.301364,26.9765455 111.191364,24.9356364 M105.178636,27.3910909 C100.951364,27.6692727 99.9822727,23.9638182 99.8913636,23.172 C99.6868182,21.332 99.7322727,18.1447273 99.7813636,14.9201818 C99.7813636,14.9201818 101.159545,12.9847273 105.105909,13.2510909 C108.366818,13.472 110.505909,15.502 110.395909,20.182 C110.298636,24.2610909 109.272273,27.1147273 105.178636,27.3910909" id="Fill-14" fill="#232E44"></path>
                    <path d="M71.93,11.6832727 C68.8136364,11.1650909 66.61,12.2832727 65.5609091,13.4787273 C64.3663636,14.846 63.7554545,17.0323636 63.7554545,19.1914545 L63.7554545,27.2096364 L63.7554545,34.6987273 L65.5145455,34.6987273 L65.5145455,27.466 C65.5145455,27.466 67.0209091,28.776 70.4063636,28.776 C73.4281818,28.776 75.4209091,27.4314545 76.63,25.1978182 C78.1618182,22.3623636 77.8954545,17.8250909 76.8754545,15.4905455 C75.9836364,13.4487273 74.6536364,12.1341818 71.93,11.6832727 M76.0790909,20.2414545 C76.1918182,24.9214545 74.05,26.9514545 70.79,27.1714545 C66.8436364,27.436 65.4690909,25.4996364 65.4690909,25.4996364 C65.4190909,22.276 65.3709091,19.0905455 65.5790909,17.2487273 C65.6663636,16.456 66.6372727,12.7496364 70.8636364,13.0323636 C74.9572727,13.3078182 75.9809091,16.1650909 76.0790909,20.2414545" id="Fill-16" fill="#232E44"></path>
                    <path d="M88.8916364,11.6832727 C85.7761818,11.1650909 83.5707273,12.2832727 82.5234545,13.4787273 C81.3252727,14.846 80.718,17.0323636 80.718,19.1914545 L80.718,27.2096364 L80.718,34.6987273 L82.4789091,34.6987273 L82.4789091,27.466 C82.4789091,27.466 83.9843636,28.776 87.3689091,28.776 C90.3925455,28.776 92.3843636,27.4314545 93.5916364,25.1978182 C95.1252727,22.3623636 94.8598182,17.8250909 93.8370909,15.4905455 C92.9452727,13.4487273 91.6143636,12.1341818 88.8916364,11.6832727 M93.0434545,20.2414545 C93.1552727,24.9214545 91.0125455,26.9514545 87.7534545,27.1714545 C83.8061818,27.436 82.4289091,25.4996364 82.4289091,25.4996364 C82.3807273,22.276 82.3343636,19.0905455 82.5407273,17.2487273 C82.6298182,16.456 83.5989091,12.7496364 87.8261818,13.0323636 C91.9216364,13.3078182 92.9443636,16.1650909 93.0434545,20.2414545" id="Fill-18" fill="#232E44"></path>
                    <polygon id="Fill-20" fill="#232E44" points="168.165455 8.624 169.340909 8.624 169.340909 5.40218182 168.165455 5.40218182"></polygon>
                    <polygon id="Fill-22" fill="#232E44" points="163.217273 28.8367273 164.39 28.8367273 164.39 25.614 163.217273 25.614"></polygon>
                    <polygon id="Fill-23" fill="#232E44" points="168.165455 28.8367273 169.340909 28.8367273 169.340909 11.5530909 168.165455 11.5530909"></polygon>
                    <path d="M180.481182,11.5536364 C176.194818,11.5536364 172.716636,15.3981818 172.716636,20.1436364 C172.716636,24.8872727 176.193,28.7327273 180.481182,28.7327273 C184.771182,28.7327273 188.245727,24.8872727 188.245727,20.1436364 C188.245727,15.3981818 184.771182,11.5536364 180.481182,11.5536364 M180.481182,27.5454545 C176.818455,27.5454545 173.850273,24.2618182 173.850273,20.2090909 C173.850273,16.1554545 176.818455,12.8718182 180.481182,12.8718182 C184.143909,12.8718182 187.113,16.1554545 187.113,20.2090909 C187.113,24.2618182 184.143909,27.5454545 180.481182,27.5454545" id="Fill-24" fill="#232E44"></path>
                </g>
            </g>
        </g>
    </g>
</svg>