<?xml version="1.0" encoding="utf-8"?>
<!-- Generator: Adobe Illustrator 15.0.0, SVG Export Plug-In . SVG Version: 6.00 Build 0)  -->
<!DOCTYPE svg PUBLIC "-//W3C//DTD SVG 1.1//EN" "http://www.w3.org/Graphics/SVG/1.1/DTD/svg11.dtd">
<svg version="1.1" id="Layer_1" xmlns="http://www.w3.org/2000/svg" xmlns:xlink="http://www.w3.org/1999/xlink" x="0px" y="0px"
	 width="39.275px" height="39.275px" viewBox="0 0 39.275 39.275" enable-background="new 0 0 39.275 39.275" xml:space="preserve">
<circle fill="#FFFFFF" cx="19.637" cy="19.638" r="19.637"/>
<g opacity="0.3">
	<path fill="#5677FC" d="M17.845,11.717h-5.929c-0.565,0-1.025,0.46-1.025,1.025v5.929c0,0.565,0.459,1.025,1.025,1.025h5.929
		c0.565,0,1.025-0.46,1.025-1.025v-5.929C18.87,12.177,18.41,11.717,17.845,11.717z"/>
	<path fill="#5677FC" d="M21.123,19.696h5.93c0.565,0,1.024-0.46,1.024-1.025v-5.929c0-0.565-0.459-1.025-1.024-1.025h-5.93
		c-0.565,0-1.025,0.46-1.025,1.025v5.929C20.098,19.236,20.557,19.696,21.123,19.696z"/>
	<path fill="#5677FC" d="M17.845,20.924h-5.929c-0.565,0-1.025,0.46-1.025,1.024v5.93c0,0.567,0.459,1.024,1.025,1.024h5.929
		c0.565,0,1.025-0.457,1.025-1.024v-5.93C18.87,21.384,18.41,20.924,17.845,20.924z"/>
	<path fill="#5677FC" d="M27.77,24.3h-3.069V21.23c0-0.339-0.274-0.613-0.613-0.613s-0.614,0.274-0.614,0.613V24.3h-3.068
		c-0.339,0-0.614,0.274-0.614,0.613s0.275,0.614,0.614,0.614h3.068v3.068c0,0.339,0.275,0.614,0.614,0.614s0.613-0.275,0.613-0.614
		v-3.068h3.069c0.339,0,0.614-0.275,0.614-0.614S28.109,24.3,27.77,24.3z"/>
</g>
</svg>
