<?xml version="1.0" encoding="utf-8"?>
<!-- Generator: Adobe Illustrator 16.0.0, SVG Export Plug-In . SVG Version: 6.00 Build 0)  -->
<!DOCTYPE svg PUBLIC "-//W3C//DTD SVG 1.1//EN" "http://www.w3.org/Graphics/SVG/1.1/DTD/svg11.dtd">
<svg version="1.1" id="Layer_1" xmlns="http://www.w3.org/2000/svg" xmlns:xlink="http://www.w3.org/1999/xlink" x="0px" y="0px"
	 width="128px" height="128px" viewBox="0 0 128 128" enable-background="new 0 0 128 128" xml:space="preserve">
<g>
	<path fill="#242E44" d="M64,0C37.027,0,8.002,8.135,8.002,25.995v75.994c0,17.86,29.025,26.001,55.998,26.001
		c26.968,0,55.998-8.141,55.998-26.001V25.995C119.992,8.135,90.961,0,64,0z M112.007,101.995c0,9.935-21.496,18.004-48.007,18.004
		s-47.995-8.063-47.995-18.004V87.057C24.266,95.575,44.202,99.991,64,99.991c19.792,0,39.734-4.422,48.007-12.935V101.995z
		 M112.007,77.991h-0.029c0,0.049,0.029,0.096,0.029,0.126c0,9.869-21.496,17.879-48.007,17.879s-47.995-8.01-47.995-17.879
		c0-0.03,0.012-0.077,0.012-0.126h-0.012V63.053C24.266,71.566,44.202,75.988,64,75.988c19.792,0,39.734-4.428,48.007-12.935V77.991
		z M112.007,53.994h-0.029c0,0.042,0.029,0.09,0.029,0.126c0,9.875-21.496,17.878-48.007,17.878S16.005,63.995,16.005,54.12
		c0-0.036,0.012-0.084,0.012-0.126h-0.012V40.255C26.486,48.235,45.696,51.997,64,51.997c18.31,0,37.52-3.762,48.007-11.741V53.994z
		 M64,43.999c-26.511,0-47.995-8.063-47.995-18.004c0-9.947,21.484-18.004,47.995-18.004s48.007,8.057,48.007,18.004
		C112.007,35.936,90.511,43.999,64,43.999z"/>
	<path fill="#242E44" d="M100.002,99.991c2.208,0,3.996,1.794,3.996,4.002c0,2.207-1.788,4.001-3.996,4.001
		c-2.213,0-4.002-1.794-4.002-4.001C96,101.785,97.789,99.991,100.002,99.991z"/>
	<path fill="#242E44" d="M100.002,76c2.208,0,3.996,1.788,3.996,3.995c0,2.208-1.788,4.002-3.996,4.002
		c-2.213,0-4.002-1.794-4.002-4.002C96,77.788,97.789,76,100.002,76z"/>
	<path fill="#242E44" d="M100.002,51.997c2.208,0,3.996,1.788,3.996,3.996c0,2.214-1.788,4.001-3.996,4.001
		c-2.213,0-4.002-1.788-4.002-4.001C96,53.784,97.789,51.997,100.002,51.997z"/>
</g>
</svg>
