<?xml version="1.0" encoding="utf-8"?>
<!-- Generator: Adobe Illustrator 16.0.0, SVG Export Plug-In . SVG Version: 6.00 Build 0)  -->
<!DOCTYPE svg PUBLIC "-//W3C//DTD SVG 1.1//EN" "http://www.w3.org/Graphics/SVG/1.1/DTD/svg11.dtd">
<svg version="1.1" id="Layer_1" xmlns="http://www.w3.org/2000/svg" xmlns:xlink="http://www.w3.org/1999/xlink" x="0px" y="0px"
	 width="128px" height="128px" viewBox="0 0 128 128" enable-background="new 0 0 128 128" xml:space="preserve">
<g>
	<path fill="#252F44" d="M112.931,3.885H15.076C6.761,3.885,0,10.647,0,18.956v91.094c0,8.32,6.761,15.069,15.076,15.069h97.854
		c8.323,0,15.069-6.749,15.069-15.069V18.956C128.012,10.647,121.254,3.885,112.931,3.885z M121.543,110.05
		c0,4.75-3.86,8.613-8.599,8.613H15.076c-4.749,0-8.607-3.863-8.607-8.613V41.508h115.074V110.05z M121.543,35.039H6.469V18.956
		c0-4.743,3.869-8.604,8.607-8.604h97.854c4.752,0,8.612,3.862,8.612,8.604V35.039L121.543,35.039z"/>
	<path fill="#252F44" d="M33.325,97.368c5.373,0,9.743-4.362,9.743-9.74c0-1.598-0.394-3.102-1.078-4.435l7.814-8.216
		c1.211,0.536,2.558,0.852,3.975,0.852c1.416,0,2.762-0.315,3.978-0.852l7.801,8.216c-0.685,1.333-1.078,2.837-1.078,4.435
		c0,5.378,4.375,9.74,9.749,9.74c5.369,0,9.742-4.362,9.742-9.74c0-1.598-0.388-3.102-1.068-4.435l7.808-8.216
		c1.205,0.536,2.559,0.852,3.969,0.852c5.386,0,9.747-4.373,9.747-9.746c0-5.369-4.361-9.744-9.747-9.744
		c-5.369,0-9.73,4.375-9.73,9.744c0,1.608,0.388,3.106,1.071,4.44l-7.811,8.224c-1.205-0.547-2.559-0.86-3.98-0.86
		c-1.415,0-2.754,0.313-3.974,0.86l-7.815-8.224c0.688-1.334,1.082-2.832,1.082-4.44c0-5.369-4.374-9.744-9.742-9.744
		c-5.378,0-9.749,4.375-9.749,9.744c0,1.608,0.393,3.106,1.084,4.44l-7.809,8.224c-1.216-0.547-2.565-0.86-3.98-0.86
		c-5.37,0-9.744,4.361-9.744,9.741C23.582,93.006,27.949,97.368,33.325,97.368z M94.695,62.796c1.803,0,3.274,1.465,3.274,3.275
		c0,1.809-1.472,3.277-3.274,3.277c-1.817,0-3.289-1.469-3.289-3.277C91.406,64.261,92.878,62.796,94.695,62.796z M74.241,84.344
		c1.802,0,3.276,1.469,3.276,3.278c0,1.808-1.475,3.277-3.276,3.277c-1.818,0-3.278-1.47-3.278-3.277
		C70.963,85.812,72.423,84.344,74.241,84.344z M53.78,62.796c1.809,0,3.279,1.465,3.279,3.275c0,1.809-1.471,3.277-3.279,3.277
		c-1.81,0-3.281-1.469-3.281-3.277C50.499,64.261,51.976,62.796,53.78,62.796z M33.325,84.344c1.816,0,3.276,1.469,3.276,3.278
		c0,1.808-1.468,3.277-3.276,3.277c-1.806,0-3.281-1.47-3.281-3.277C30.044,85.812,31.509,84.344,33.325,84.344z"/>
</g>
</svg>
