<?xml version="1.0" encoding="utf-8"?>
<!-- Generator: Adobe Illustrator 15.0.0, SVG Export Plug-In . SVG Version: 6.00 Build 0)  -->
<!DOCTYPE svg PUBLIC "-//W3C//DTD SVG 1.1//EN" "http://www.w3.org/Graphics/SVG/1.1/DTD/svg11.dtd">
<svg version="1.1" id="Layer_1" xmlns="http://www.w3.org/2000/svg" xmlns:xlink="http://www.w3.org/1999/xlink" x="0px" y="0px"
	 width="39.275px" height="39.275px" viewBox="0 0 39.275 39.275" enable-background="new 0 0 39.275 39.275" xml:space="preserve">
<circle fill="#FFFFFF" cx="19.637" cy="19.638" r="19.637"/>
<path opacity="0.3" fill="#5677FC" d="M27.38,10.098H11.979c-1.308,0-2.372,1.063-2.372,2.372v14.336
	c0,1.309,1.064,2.372,2.372,2.372H27.38c1.308,0,2.371-1.063,2.371-2.372V12.47C29.751,11.161,28.688,10.098,27.38,10.098z
	 M28.734,26.806c0,0.747-0.607,1.354-1.354,1.354H11.979c-0.747,0-1.354-0.607-1.354-1.354V16.019h18.109V26.806z M28.734,15.001
	H10.625V12.47c0-0.747,0.608-1.354,1.354-1.354H27.38c0.746,0,1.354,0.607,1.354,1.354V15.001L28.734,15.001z"/>
<path opacity="0.3" fill="#5677FC" d="M14.852,24.81c0.845,0,1.533-0.688,1.533-1.533c0-0.251-0.062-0.488-0.17-0.697l1.229-1.295
	c0.191,0.086,0.403,0.135,0.626,0.135c0.223,0,0.435-0.049,0.626-0.135l1.229,1.295c-0.108,0.209-0.17,0.446-0.17,0.697
	c0,0.846,0.688,1.533,1.533,1.533c0.846,0,1.533-0.688,1.533-1.533c0-0.251-0.062-0.488-0.169-0.697l1.229-1.295
	c0.191,0.086,0.402,0.135,0.625,0.135c0.846,0,1.533-0.688,1.533-1.534c0-0.845-0.688-1.533-1.533-1.533s-1.533,0.688-1.533,1.533
	c0,0.252,0.062,0.489,0.17,0.698l-1.229,1.295c-0.19-0.086-0.403-0.135-0.626-0.135s-0.434,0.049-0.626,0.135l-1.229-1.295
	c0.108-0.209,0.17-0.446,0.17-0.698c0-0.845-0.688-1.533-1.533-1.533c-0.846,0-1.534,0.688-1.534,1.533
	c0,0.252,0.062,0.489,0.17,0.698l-1.229,1.295c-0.191-0.086-0.403-0.135-0.626-0.135c-0.846,0-1.534,0.688-1.534,1.533
	S14.005,24.81,14.852,24.81z M24.508,19.369c0.284,0,0.516,0.231,0.516,0.516c0,0.285-0.231,0.517-0.516,0.517
	s-0.517-0.231-0.517-0.517C23.992,19.601,24.224,19.369,24.508,19.369z M21.29,22.761c0.284,0,0.516,0.23,0.516,0.516
	s-0.231,0.517-0.516,0.517c-0.285,0-0.517-0.231-0.517-0.517S21.004,22.761,21.29,22.761z M18.07,19.369
	c0.285,0,0.516,0.231,0.516,0.516c0,0.285-0.231,0.517-0.516,0.517s-0.517-0.231-0.517-0.517
	C17.554,19.601,17.786,19.369,18.07,19.369z M14.852,22.761c0.285,0,0.516,0.23,0.516,0.516s-0.231,0.517-0.516,0.517
	c-0.285,0-0.517-0.231-0.517-0.517S14.566,22.761,14.852,22.761z"/>
</svg>
