<?xml version="1.0" encoding="utf-8"?>
<!-- Generator: Adobe Illustrator 15.0.0, SVG Export Plug-In . SVG Version: 6.00 Build 0)  -->
<!DOCTYPE svg PUBLIC "-//W3C//DTD SVG 1.1//EN" "http://www.w3.org/Graphics/SVG/1.1/DTD/svg11.dtd">
<svg version="1.1" id="Layer_1" xmlns="http://www.w3.org/2000/svg" xmlns:xlink="http://www.w3.org/1999/xlink" x="0px" y="0px"
	 width="39.263px" height="42.667px" viewBox="0 0 39.263 42.667" enable-background="new 0 0 39.263 42.667" xml:space="preserve">
<g>
	<path fill="#999999" d="M6.529,10.737c0,0,1.257-3.513,10.082-4.435c8.484-0.888,13.717,2.365,13.835,2.453
		c0.118,0.089,2.275,1.153,2.336,3.192c0.059,2.04-1.36,2.986-3.192,4.14c-1.834,1.152-6.684,1.833-6.684,1.833
		s-0.972-4.119-5.764-6.091C11.271,9.415,6.529,10.737,6.529,10.737z"/>
	<path fill="#999999" d="M6.205,12.034c0,0,5.666-0.438,9.355,0.87c3.533,1.252,5.17,3.686,5.504,5.233l0,0
		c0,0-5.355,0.893-10.012-1.42C6.529,14.472,6.205,12.034,6.205,12.034z"/>
	<path fill="#999999" d="M6.205,14.353v4.219c0,0,2.463,6.208,15.648,5.597c0,0,0.321-2.502-0.315-4.572
		C21.538,19.596,9.67,20.62,6.205,14.353z"/>
	<path fill="#999999" d="M6.205,20.305v4.809c0,0,2.995,5.164,12.219,4.81c0,0,2.286-1.144,3.193-4.296
		C21.617,25.627,9.594,26.493,6.205,20.305z"/>
	<path fill="#999999" d="M6.205,26.967v4.553c0,0,3.468,2.267,10.563-0.178C16.769,31.342,8.294,30.948,6.205,26.967z"/>
	<path fill="#999999" d="M23.43,19.517c0,0,0.395,2.72,0.158,4.376c0,0,7.884-0.237,9.195-5.164v-4.376
		C32.783,14.353,32.22,18.452,23.43,19.517z"/>
	<path fill="#999999" d="M23.43,25.469c0,0-1.044,3.153-2.759,4.493c0,0,9.838,0.395,12.112-4.729v-4.928
		C32.783,20.305,32.418,24.216,23.43,25.469z"/>
	<path fill="#999999" d="M6.559,32.997c0,0,5.521,2.472,12.248-1.506c0,0,12.59,0.974,13.977-4.643v5.32
		c0,0-2.867,4.785-13.125,4.314C9.398,36.013,6.559,32.997,6.559,32.997z"/>
</g>
</svg>
