<?xml version="1.0" encoding="utf-8"?>
<!-- Generator: Adobe Illustrator 16.0.0, SVG Export Plug-In . SVG Version: 6.00 Build 0)  -->
<!DOCTYPE svg PUBLIC "-//W3C//DTD SVG 1.1//EN" "http://www.w3.org/Graphics/SVG/1.1/DTD/svg11.dtd">
<svg version="1.1" id="Layer_1" xmlns="http://www.w3.org/2000/svg" xmlns:xlink="http://www.w3.org/1999/xlink" x="0px" y="0px"
	 width="128px" height="128px" viewBox="0 0 128 128" enable-background="new 0 0 128 128" xml:space="preserve">
<g>
	<path fill="#242E44" d="M59.597,84.998l6.565,6.569c1.07,1.072,2.525,1.685,4.045,1.685h8.412v7.306c0,3.721,3.02,6.741,6.74,6.741
		h7.307v8.383c0.012,1.52,0.619,2.968,1.684,4.045l4.682,4.681c0.971,0.931,2.266,1.46,3.613,1.466h18.574
		c2.457-0.006,4.439-1.995,4.451-4.445l0,0v-18.58c-0.012-1.396-0.57-2.737-1.553-3.732L84.76,59.817
		c8.33-22.207-2.92-46.952-25.121-55.282C43.86-1.381,26.081,2.469,14.17,14.396C-2.625,31.14-2.662,58.328,14.076,75.118
		C25.993,87.069,43.802,90.932,59.597,84.998z M17.992,18.211C32.657,3.552,56.43,3.558,71.09,18.218
		c10.797,10.803,13.977,27.064,8.035,41.134c-0.418,1.007-0.188,2.179,0.59,2.956l40.551,40.546v17.627h-17.527l-4.674-4.675
		c-0.059-0.07-0.1-0.152-0.1-0.241v-9.92c0-2.131-1.719-3.851-3.855-3.851l0,0h-8.896c-0.348,0-0.664-0.142-0.906-0.377
		c-0.236-0.247-0.371-0.577-0.371-0.912v-8.808c0-2.131-1.725-3.856-3.861-3.856l0,0h-9.92c-0.102,0-0.178-0.047-0.242-0.111
		l-7.818-7.818c-0.777-0.777-1.943-1.007-2.956-0.589c-19.11,8.06-41.123-0.913-49.17-20.029
		C4.05,45.247,7.218,29.009,17.992,18.211z M35.877,49.597c7.447,0,13.481-6.035,13.481-13.482c0-7.441-6.034-13.476-13.481-13.476
		c-7.442,0-13.477,6.034-13.477,13.476C22.401,43.562,28.436,49.597,35.877,49.597z M35.877,28.138c4.468,0,8.083,3.615,8.083,8.083
		s-3.621,8.089-8.083,8.089c-4.469,0-8.089-3.621-8.089-8.089l0,0c-0.006-4.468,3.603-8.095,8.072-8.101c0,0,0.005,0,0.011,0v0.018
		H35.877z"/>
	<path fill="#242E44" d="M121.219,127.38h-18.58c-1.742-0.005-3.391-0.677-4.65-1.884l-4.703-4.697
		c-1.361-1.372-2.115-3.174-2.133-5.104v-6.889h-5.797c-4.553,0-8.25-3.697-8.25-8.248v-5.799h-6.904
		c-1.896,0-3.762-0.777-5.111-2.132l-5.893-5.893c-4.74,1.666-9.679,2.508-14.707,2.508l0,0c-11.905,0-23.084-4.646-31.486-13.064
		C4.627,67.766,0.023,56.603,0.041,44.734c0.018-11.875,4.651-23.025,13.064-31.409C21.5,4.912,32.674,0.285,44.561,0.285
		c5.34,0,10.591,0.954,15.602,2.832c11.115,4.169,19.939,12.422,24.851,23.231c4.779,10.509,5.297,22.219,1.482,33.075
		l38.674,38.626c1.271,1.278,1.979,2.979,1.996,4.787v18.592C127.16,124.707,124.488,127.375,121.219,127.38z M59.974,83.243
		l7.247,7.259c0.789,0.789,1.885,1.242,2.98,1.242h9.92v8.813c0,2.885,2.355,5.233,5.234,5.233h8.812v9.891
		c0.006,1.125,0.453,2.185,1.248,2.979l4.674,4.681c0.678,0.642,1.596,1.019,2.555,1.024h18.564c1.619-0.006,2.943-1.33,2.949-2.944
		v-18.574c-0.006-1-0.406-1.955-1.125-2.673L83,60.194l0.34-0.907c3.898-10.361,3.51-21.612-1.07-31.685
		c-4.58-10.079-12.805-17.768-23.167-21.66c-4.674-1.754-9.561-2.638-14.542-2.638c-11.08,0-21.501,4.315-29.331,12.158
		C7.395,23.274,3.067,33.678,3.049,44.746C3.026,55.808,7.323,66.217,15.142,74.053c7.825,7.866,18.246,12.188,29.343,12.188
		c4.987,0,9.891-0.89,14.571-2.65L59.974,83.243z M121.768,121.987h-19.658l-5.564-5.563l-0.1-0.865v-9.92
		c0-1.289-1.053-2.344-2.348-2.344h-8.885c-0.73,0-1.426-0.288-1.959-0.806c-0.537-0.565-0.82-1.248-0.832-1.974v-8.831
		c0-1.289-1.059-2.349-2.355-2.349H69.523l-0.678-0.553l-7.824-7.818c-0.341-0.33-0.871-0.436-1.307-0.259
		c-4.833,2.036-9.926,3.073-15.143,3.073c-15.754,0-29.883-9.385-36-23.909C2.39,45.187,5.669,28.414,16.92,17.134
		C24.297,9.763,34.1,5.695,44.532,5.695S64.773,9.763,72.154,17.14c11.287,11.292,14.566,28.083,8.361,42.783
		c-0.189,0.447-0.09,0.96,0.258,1.295l40.994,40.999V121.987z M103.357,118.974h15.395v-15.49l-40.104-40.11
		c-1.213-1.213-1.578-3.014-0.906-4.598c5.729-13.57,2.703-29.072-7.713-39.492c-6.811-6.812-15.86-10.562-25.492-10.562
		c-9.625,0-18.674,3.75-25.48,10.55C8.678,29.68,5.652,45.158,11.356,58.71c5.64,13.411,18.681,22.066,33.222,22.066
		c4.804,0,9.508-0.954,13.977-2.838c1.555-0.647,3.409-0.282,4.604,0.906l7.49,7.483h9.418c2.957,0,5.371,2.401,5.371,5.363v8.808
		l8.666-0.212c2.955,0,5.363,2.396,5.363,5.357v9.438L103.357,118.974z M35.877,51.104c-8.266,0-14.983-6.723-14.983-14.989
		c0-8.26,6.717-14.983,14.983-14.983c8.266,0,14.989,6.723,14.989,14.983C50.866,44.375,44.143,51.104,35.877,51.104z
		 M35.877,24.146c-6.6,0-11.969,5.369-11.969,11.969c0,6.606,5.37,11.975,11.969,11.975c6.605,0,11.975-5.369,11.975-11.975
		C47.852,29.515,42.488,24.146,35.877,24.146z M35.877,45.817c-5.293,0-9.596-4.303-9.596-9.596
		c-0.012-5.287,4.286-9.596,9.579-9.608l1.524,0.129c4.575,0.73,8.083,4.698,8.083,9.479C45.474,41.514,41.169,45.817,35.877,45.817
		z M35.395,29.645c-3.409,0.253-6.105,3.103-6.099,6.576c0,3.633,2.955,6.582,6.582,6.582c3.632,0,6.576-2.955,6.576-6.582
		c0-3.632-2.949-6.576-6.576-6.576H35.395z"/>
</g>
</svg>
