<?xml version="1.0" encoding="utf-8"?>
<!-- Generator: Adobe Illustrator 16.0.0, SVG Export Plug-In . SVG Version: 6.00 Build 0)  -->
<!DOCTYPE svg PUBLIC "-//W3C//DTD SVG 1.1//EN" "http://www.w3.org/Graphics/SVG/1.1/DTD/svg11.dtd">
<svg version="1.1" id="Layer_1" xmlns="http://www.w3.org/2000/svg" xmlns:xlink="http://www.w3.org/1999/xlink" x="0px" y="0px"
	 width="128px" height="128px" viewBox="0 0 128 128" enable-background="new 0 0 128 128" xml:space="preserve">
<g>
	<path fill="#FFFFFF" d="M50.89,0.01H7.509c-4.137,0-7.502,3.365-7.502,7.502v43.371c0,4.136,3.365,7.501,7.502,7.501H50.89
		c4.129,0,7.494-3.366,7.494-7.501V7.512C58.384,3.375,55.019,0.01,50.89,0.01z"/>
	<path fill="#FFFFFF" d="M74.867,58.384h43.382c4.136,0,7.494-3.366,7.494-7.501V7.512c0-4.137-3.358-7.502-7.494-7.502H74.867
		c-4.137,0-7.503,3.365-7.503,7.502v43.371C67.364,55.019,70.73,58.384,74.867,58.384z"/>
	<path fill="#FFFFFF" d="M50.89,67.364H7.509c-4.137,0-7.502,3.364-7.502,7.492v43.38c0,4.15,3.365,7.494,7.502,7.494H50.89
		c4.129,0,7.494-3.344,7.494-7.494v-43.38C58.384,70.729,55.019,67.364,50.89,67.364z"/>
	<path fill="#FFFFFF" d="M123.499,92.062h-22.455V69.607c0-2.479-2.007-4.487-4.486-4.487s-4.494,2.009-4.494,4.487v22.454H69.615
		c-2.479,0-4.493,2.006-4.493,4.485c0,2.479,2.015,4.493,4.493,4.493h22.448v22.446c0,2.479,2.015,4.494,4.494,4.494
		s4.486-2.015,4.486-4.494V101.04h22.455c2.479,0,4.494-2.015,4.494-4.493C127.993,94.067,125.979,92.062,123.499,92.062z"/>
</g>
</svg>
