<?xml version="1.0" encoding="utf-8"?>
<!-- Generator: Adobe Illustrator 16.0.0, SVG Export Plug-In . SVG Version: 6.00 Build 0)  -->
<!DOCTYPE svg PUBLIC "-//W3C//DTD SVG 1.1//EN" "http://www.w3.org/Graphics/SVG/1.1/DTD/svg11.dtd">
<svg version="1.1" id="Layer_1" xmlns="http://www.w3.org/2000/svg" xmlns:xlink="http://www.w3.org/1999/xlink" x="0px" y="0px"
	 width="337.887px" height="308.276px" viewBox="0 0 337.887 308.276" enable-background="new 0 0 337.887 308.276"
	 xml:space="preserve">
<path fill="#FFFFFF" d="M337.199,179.668c0.014-0.306-0.042-0.609-0.042-0.918c0-8.818-5.304-16.785-13.417-20.24l-67.365-28.75
	c-1.178-0.502-2.487-0.873-3.487-1.16V54.761c0-1.069-0.349-2.109-0.688-3.093c0.014-0.306-0.042-0.609-0.042-0.918
	c0-8.818-5.304-16.785-13.417-20.24L171.221,1.76C168.466,0.586,165.522,0,162.59,0c-2.99,0-5.984,0.609-8.782,1.827l-65.502,28.5
	c-7.15,3.111-12.042,9.739-13.029,17.339c-0.5,1.155-0.785,2.409-0.793,3.705l-0.473,76.977l-59.708,25.979
	c-7.677,3.34-12.749,10.732-13.18,19.032c-0.417,1.066-0.644,2.215-0.651,3.394L0,253.453c-0.022,3.653,2.051,6.995,5.334,8.597
	l83.58,40.778c0.192,0.094,0.391,0.166,0.588,0.246c1.421,0.783,2.992,1.202,4.578,1.202c1.362,0,2.728-0.293,4.001-0.884
	l73.153-33.977l76.68,37.412c0.192,0.094,0.391,0.166,0.588,0.246c1.421,0.783,2.992,1.202,4.578,1.202
	c1.361,0,2.729-0.293,4.002-0.884l75.153-34.834c3.353-1.558,5.651-4.919,5.651-8.616v-81.182
	C337.887,181.691,337.539,180.651,337.199,179.668z M178.887,154.258v-57.66l55-23.426v56.601L178.887,154.258z M88.58,146
	l66.668,28.396l-62.292,26.964l-66.967-28.125L88.58,146z M314.249,178.396l-62.293,26.964l-66.967-28.125L247.581,150
	L314.249,178.396z M162.58,22l66.668,28.396l-60.667,26.26L101.61,48.529L162.58,22z M102.698,221.398l56.672-24.138l-0.35,56.879
	l-55.618,25.832L102.698,221.398z M262.556,283.972l-0.628-58.573l56.959-24.227v56.708L262.556,283.972z"/>
</svg>
