<?xml version="1.0" encoding="utf-8"?>
<!-- Generator: Adobe Illustrator 16.0.0, SVG Export Plug-In . SVG Version: 6.00 Build 0)  -->
<!DOCTYPE svg PUBLIC "-//W3C//DTD SVG 1.1//EN" "http://www.w3.org/Graphics/SVG/1.1/DTD/svg11.dtd">
<svg version="1.1" id="Layer_1" xmlns="http://www.w3.org/2000/svg" xmlns:xlink="http://www.w3.org/1999/xlink" x="0px" y="0px"
	 width="128px" height="128px" viewBox="0 0 128 128" enable-background="new 0 0 128 128" xml:space="preserve">
<g transform="translate(0,-952.36218)">
	<path fill="#242E44" d="M64.003,978.603c-6.511,0-12.425,2.739-16.654,7.082c-3.445-2.558-7.746-4.177-12.395-4.177
		c-11.367,0-20.332,9.022-20.332,20.333c0,5.126,1.774,9.894,4.897,13.567c-11.373,5.536-19.419,16.929-19.419,30.003
		c0,1.603,1.302,2.905,2.906,2.905h21.873c-0.078,0.959-0.093,1.925-0.093,2.905c0,1.603,1.302,2.9,2.905,2.9h72.607
		c1.614,0,2.911-1.298,2.911-2.9c0-0.98-0.016-1.946-0.088-2.905h21.873c1.603,0,2.905-1.303,2.905-2.905
		c0-13.074-8.052-24.468-19.425-30.003c3.118-3.673,4.897-8.441,4.897-13.567c0-11.31-8.96-20.333-20.327-20.333
		c-4.643,0-8.949,1.619-12.389,4.177C76.439,981.337,70.52,978.603,64.003,978.603z M64.003,984.409
		c9.66,0,17.433,7.767,17.433,17.427c0,5.754-3.004,10.345-7.533,13.619c-1.287,0.959-1.552,2.776-0.592,4.062
		c0.353,0.473,0.846,0.83,1.411,1.017c12.135,4.037,21.193,15.066,22.418,27.777H30.877c1.224-12.711,10.283-23.74,22.418-27.777
		c1.525-0.514,2.345-2.152,1.836-3.678c-0.192-0.565-0.545-1.053-1.012-1.406c-4.529-3.274-7.533-7.865-7.533-13.619
		C46.586,992.175,54.348,984.409,64.003,984.409z M34.96,987.314c3.294,0,6.407,1.152,8.893,2.999
		c-1.956,3.403-3.087,7.326-3.087,11.528c0,6.013,2.516,11.123,6.267,15.066c-10.423,4.976-18.371,14.396-21.152,25.598H6.145
		c1.229-10.765,9.11-19.958,19.559-23.419c1.515-0.523,2.319-2.184,1.79-3.694c-0.187-0.55-0.545-1.038-1.017-1.385
		c-3.714-2.672-6.034-7.134-6.034-12.166C20.438,993.498,26.565,987.314,34.96,987.314z M93.057,987.314
		c8.395,0,14.517,6.189,14.517,14.527c0,5.032-2.319,9.489-6.028,12.166c-1.298,0.95-1.572,2.771-0.623,4.062
		c0.353,0.478,0.835,0.83,1.391,1.021c10.454,3.461,18.329,12.654,19.564,23.42h-19.741c-2.775-11.201-10.729-20.628-21.152-25.599
		c3.752-3.943,6.268-9.053,6.268-15.066c0-4.202-1.126-8.125-3.092-11.528C86.654,988.466,89.762,987.314,93.057,987.314z"/>
</g>
</svg>
