<?xml version="1.0" encoding="UTF-8"?>
<svg width="112px" height="64px" viewBox="0 0 112 64" version="1.1" xmlns="http://www.w3.org/2000/svg" xmlns:xlink="http://www.w3.org/1999/xlink">
    <!-- Generator: sketchtool 50.2 (55047) - http://www.bohemiancoding.com/sketch -->
    <title>4AD9F541-1BA1-4C26-BE37-A52514B73666@3x</title>
    <desc>Created with sketchtool.</desc>
    <defs></defs>
    <g id="Page-1" stroke="none" stroke-width="1" fill="none" fill-rule="evenodd">
        <g id="End-Screen-Copy" transform="translate(-1110.000000, -803.000000)" fill="#232E44">
            <path d="M1120.19141,844.910156 C1120.19141,840.550759 1117.07425,838.371094 1110.83984,838.371094 L1110.83984,831.65625 C1114.00392,831.65625 1116.35351,831.123052 1117.88867,830.056641 C1119.42384,828.990229 1120.19141,827.367198 1120.19141,825.1875 L1120.19141,814.253906 C1120.19141,810.597638 1121.46288,807.908212 1124.00586,806.185547 C1126.54884,804.462882 1130.36326,803.601562 1135.44922,803.601562 L1135.44922,810 C1132.77733,810.117188 1130.8379,810.662105 1129.63086,811.634766 C1128.42382,812.607427 1127.82031,814.054678 1127.82031,815.976562 L1127.82031,826.417969 C1127.82031,831.082055 1125.13675,833.871089 1119.76953,834.785156 L1119.76953,835.207031 C1125.13675,836.050785 1127.82031,838.828101 1127.82031,843.539062 L1127.82031,854.050781 C1127.82031,855.972666 1128.41796,857.425776 1129.61328,858.410156 C1130.8086,859.394536 1132.75389,859.910156 1135.44922,859.957031 L1135.44922,866.390625 C1130.03513,866.34375 1126.13868,865.423837 1123.75977,863.630859 C1121.38085,861.837882 1120.19141,858.93752 1120.19141,854.929688 L1120.19141,844.910156 Z M1141.74219,850.605469 C1141.74219,848.894523 1142.1875,847.582036 1143.07812,846.667969 C1143.96875,845.753902 1145.2578,845.296875 1146.94531,845.296875 C1148.65626,845.296875 1149.95703,845.77148 1150.84766,846.720703 C1151.73829,847.669927 1152.18359,848.964836 1152.18359,850.605469 C1152.18359,852.26954 1151.73243,853.587886 1150.83008,854.560547 C1149.92773,855.533208 1148.63282,856.019531 1146.94531,856.019531 C1145.2578,856.019531 1143.96875,855.539067 1143.07812,854.578125 C1142.1875,853.617183 1141.74219,852.292977 1141.74219,850.605469 Z M1161.32422,850.605469 C1161.32422,848.894523 1161.76953,847.582036 1162.66016,846.667969 C1163.55079,845.753902 1164.83984,845.296875 1166.52734,845.296875 C1168.23829,845.296875 1169.53906,845.77148 1170.42969,846.720703 C1171.32032,847.669927 1171.76562,848.964836 1171.76562,850.605469 C1171.76562,852.26954 1171.31446,853.587886 1170.41211,854.560547 C1169.50976,855.533208 1168.21485,856.019531 1166.52734,856.019531 C1164.83984,856.019531 1163.55079,855.539067 1162.66016,854.578125 C1161.76953,853.617183 1161.32422,852.292977 1161.32422,850.605469 Z M1180.90625,850.605469 C1180.90625,848.894523 1181.35156,847.582036 1182.24219,846.667969 C1183.13282,845.753902 1184.42187,845.296875 1186.10938,845.296875 C1187.82032,845.296875 1189.12109,845.77148 1190.01172,846.720703 C1190.90235,847.669927 1191.34766,848.964836 1191.34766,850.605469 C1191.34766,852.26954 1190.89649,853.587886 1189.99414,854.560547 C1189.09179,855.533208 1187.79688,856.019531 1186.10938,856.019531 C1184.42187,856.019531 1183.13282,855.539067 1182.24219,854.578125 C1181.35156,853.617183 1180.90625,852.292977 1180.90625,850.605469 Z M1212.30078,855.703125 C1212.30078,859.359393 1211.13478,862.04296 1208.80273,863.753906 C1206.47069,865.464852 1202.73831,866.34375 1197.60547,866.390625 L1197.60547,859.957031 C1199.83204,859.933594 1201.5664,859.482426 1202.80859,858.603516 C1204.05079,857.724605 1204.67188,856.207042 1204.67188,854.050781 L1204.67188,844.839844 C1204.67188,842.003892 1205.29296,839.812508 1206.53516,838.265625 C1207.77735,836.718742 1209.83983,835.699221 1212.72266,835.207031 L1212.72266,834.785156 C1207.35544,833.871089 1204.67188,831.082055 1204.67188,826.417969 L1204.67188,815.976562 C1204.67188,814.054678 1204.13868,812.607427 1203.07227,811.634766 C1202.00585,810.662105 1200.18361,810.117188 1197.60547,810 L1197.60547,803.601562 C1202.83206,803.601562 1206.58788,804.498038 1208.87305,806.291016 C1211.15821,808.083993 1212.30078,811.019511 1212.30078,815.097656 L1212.30078,825.1875 C1212.30078,827.531262 1213.04491,829.195308 1214.5332,830.179688 C1216.02149,831.164067 1218.23045,831.65625 1221.16016,831.65625 L1221.16016,838.371094 C1218.27733,838.371094 1216.08009,838.869136 1214.56836,839.865234 C1213.05663,840.861333 1212.30078,842.542957 1212.30078,844.910156 L1212.30078,855.703125 Z" id="{…}"></path>
        </g>
    </g>
</svg>