<?xml version="1.0" encoding="UTF-8"?>
<svg width="133px" height="94px" viewBox="0 0 133 94" version="1.1" xmlns="http://www.w3.org/2000/svg" xmlns:xlink="http://www.w3.org/1999/xlink">
    <!-- Generator: sketchtool 50.2 (55047) - http://www.bohemiancoding.com/sketch -->
    <title>51CB30C7-4FF4-418C-9D13-B452FEA3DE4A@3x</title>
    <desc>Created with sketchtool.</desc>
    <defs></defs>
    <g id="Page-1" stroke="none" stroke-width="1" fill="none" fill-rule="evenodd">
        <g id="End-Screen-Copy" transform="translate(-1100.000000, -286.000000)">
            <g id="Group" transform="translate(1105.000000, 291.000000)">
                <g id="Dashboard" transform="translate(26.000000, 27.000000)" fill="#232E44">
                    <path d="M8.31449458,23.8951688 C9.8602421,23.8951688 11.1131111,25.1416847 11.1131111,26.6917002 C11.1131111,28.2362961 9.8602421,29.4882317 8.31449458,29.4882317 C6.76874705,29.4882317 5.51587801,28.2362961 5.51587801,26.6917002 C5.51587801,25.1416847 6.76874705,23.8951688 8.31449458,23.8951688 M25.7733061,5.51176835 C27.3190536,5.51176835 28.5719227,6.76912357 28.5719227,8.30829978 C28.5719227,9.85289563 27.3190536,11.1102509 25.7733061,11.1102509 C24.2329822,11.1102509 22.9746895,9.85289563 22.9746895,8.30829978 C22.9746895,6.76912357 24.2329822,5.51176835 25.7733061,5.51176835 M43.2321176,23.8951688 C44.7778651,23.8951688 46.0307342,25.1416847 46.0307342,26.6917002 C46.0307342,28.2362961 44.7778651,29.4882317 43.2321176,29.4882317 C41.6863701,29.4882317 40.433501,28.2362961 40.433501,26.6917002 C40.433501,25.1416847 41.6863701,23.8951688 43.2321176,23.8951688 M60.6909291,5.51176835 C62.2312529,5.51176835 63.4895457,6.76912357 63.4895457,8.30829978 C63.4895457,9.85289563 62.2312529,11.1102509 60.6909291,11.1102509 C59.1506053,11.1102509 57.8923125,9.85289563 57.8923125,8.30829978 C57.8923125,6.76912357 59.1506053,5.51176835 60.6909291,5.51176835 M8.31449458,35 C12.9029241,35 16.6289892,31.2712914 16.6289892,26.6917002 C16.6289892,25.3313719 16.2981449,24.0414989 15.7069643,22.9087953 L22.3835089,15.8903685 C23.4194309,16.3564571 24.5638264,16.6220192 25.7733061,16.6220192 C26.977362,16.6220192 28.1326049,16.3564571 29.1739506,15.8903685 L35.8342242,22.9087953 C35.2538909,24.0414989 34.9121993,25.3313719 34.9121993,26.6917002 C34.9121993,31.2712914 38.6436881,35 43.2266939,35 C47.8151234,35 51.5466122,31.2712914 51.5466122,26.6917002 C51.5466122,25.3313719 51.2103443,24.0414989 50.630011,22.9087953 L57.2957082,15.8903685 C58.3370539,16.3564571 59.4814495,16.6220192 60.6855054,16.6220192 C65.2739349,16.6220192 69,12.8933106 69,8.30829978 C69,3.72870858 65.2739349,0 60.6855054,0 C56.1024996,0 52.3710108,3.72870858 52.3710108,8.30829978 C52.3710108,9.67404769 52.7127024,10.9585011 53.2930357,12.0912047 L46.6219148,19.1096315 C45.5914164,18.6435429 44.4361736,18.3779808 43.2266939,18.3779808 C42.022638,18.3779808 40.8782424,18.6435429 39.8368967,19.1096315 L33.1657758,12.0912047 C33.7515328,10.9585011 34.0878007,9.67404769 34.0878007,8.30829978 C34.0878007,3.72870858 30.3563119,0 25.7733061,0 C21.1848766,0 17.4588115,3.72870858 17.4588115,8.30829978 C17.4588115,9.67404769 17.7896557,10.9585011 18.3754127,12.0912047 L11.7097155,19.1096315 C10.6737934,18.6435429 9.52397422,18.3779808 8.31449458,18.3779808 C3.72606508,18.3779808 0,22.1066894 0,26.6917002 C0,31.2712914 3.72606508,35 8.31449458,35" id="Fill-6"></path>
                </g>
                <g id="Web-App-Copy">
                    <rect id="Rectangle-26" stroke="#232E44" stroke-width="5" x="-2.5" y="-2.5" width="128" height="89"></rect>
                    <circle id="Oval-7" fill="#232E44" cx="6" cy="6" r="2"></circle>
                    <circle id="Oval-7-Copy-2" fill="#232E44" cx="13" cy="6" r="2"></circle>
                    <circle id="Oval-7-Copy-3" fill="#232E44" cx="19" cy="6" r="2"></circle>
                </g>
            </g>
        </g>
    </g>
</svg>