<svg xmlns="http://www.w3.org/2000/svg" id="Layer_1" data-name="Layer 1" viewBox="0 0 328 80"><defs><style>.cls-1{fill:#343741;}.cls-1,.cls-2,.cls-3{fill-rule:evenodd;}.cls-2{fill:#fec514;}.cls-3{fill:#00bfb3;}</style></defs><title>Elastic Search Color Lockup</title><path d="M93.27,49.56a10,10,0,0,1-7.56-2.82A10.73,10.73,0,0,1,83,39c0-3.38.84-6.05,2.53-8a8.75,8.75,0,0,1,7-2.91A8.54,8.54,0,0,1,99,30.56a9.54,9.54,0,0,1,2.38,6.87v2.38H87.52a6.78,6.78,0,0,0,1.63,4.64,5.68,5.68,0,0,0,4.33,1.62,15.48,15.48,0,0,0,3.42-.35,17.49,17.49,0,0,0,3.4-1.15v3.58A13.45,13.45,0,0,1,97,49.24,20.24,20.24,0,0,1,93.27,49.56Zm-.8-18.15a4.42,4.42,0,0,0-3.37,1.33,6.35,6.35,0,0,0-1.51,3.88H97a5.71,5.71,0,0,0-1.23-3.89A4.24,4.24,0,0,0,92.47,31.41Z"/><path d="M110.75,49.18h-4.41V20h4.41Z"/><path d="M130,49.18l-.88-2.88H129a8.45,8.45,0,0,1-3,2.57,9.46,9.46,0,0,1-3.9.69,6.59,6.59,0,0,1-4.77-1.65,6.2,6.2,0,0,1-1.72-4.67A5.49,5.49,0,0,1,118,38.4q2.37-1.63,7.25-1.78l3.58-.11V35.4a4.2,4.2,0,0,0-.93-3,3.74,3.74,0,0,0-2.87-1,10,10,0,0,0-3.06.46A25.65,25.65,0,0,0,119.13,33l-1.43-3.15a15.48,15.48,0,0,1,3.7-1.34,16.72,16.72,0,0,1,3.78-.46q4,0,6,1.73t2,5.41v14Zm-6.56-3a5.42,5.42,0,0,0,3.85-1.34,4.84,4.84,0,0,0,1.46-3.76v-1.8l-2.67.12a9.08,9.08,0,0,0-4.53,1,3.16,3.16,0,0,0-1.41,2.84,2.75,2.75,0,0,0,.82,2.14A3.54,3.54,0,0,0,123.46,46.18Z"/><path d="M153.25,43.28A5.42,5.42,0,0,1,151,47.94a10.6,10.6,0,0,1-6.34,1.62,14.89,14.89,0,0,1-6.65-1.26V44.5a16.35,16.35,0,0,0,6.8,1.68c2.72,0,4.07-.82,4.07-2.45a2,2,0,0,0-.45-1.32A5.18,5.18,0,0,0,147,41.33a25.2,25.2,0,0,0-2.87-1.28,13.33,13.33,0,0,1-4.85-2.77,5.17,5.17,0,0,1-1.26-3.6,4.71,4.71,0,0,1,2.15-4.14A10.18,10.18,0,0,1,146,28.07a16.55,16.55,0,0,1,6.92,1.48l-1.43,3.32a15.52,15.52,0,0,0-5.64-1.39c-2.33,0-3.49.67-3.49,2a2,2,0,0,0,.91,1.65,20,20,0,0,0,4,1.86A18,18,0,0,1,151,38.8a5.4,5.4,0,0,1,1.72,1.9A5.46,5.46,0,0,1,153.25,43.28Z"/><path d="M165.74,46a10.67,10.67,0,0,0,3.23-.51v3.32a8.93,8.93,0,0,1-1.89.53,12.43,12.43,0,0,1-2.39.22q-6.25,0-6.26-6.6V31.78H155.6v-2l3-1.61,1.5-4.39h2.72v4.62h5.91v3.33h-5.91v11.1a3.13,3.13,0,0,0,.8,2.36A2.93,2.93,0,0,0,165.74,46Z"/><path d="M172.85,23a2.45,2.45,0,0,1,.64-1.82,2.54,2.54,0,0,1,1.85-.63A2.23,2.23,0,0,1,177.8,23a2.25,2.25,0,0,1-2.46,2.42,2.47,2.47,0,0,1-1.85-.65A2.39,2.39,0,0,1,172.85,23Zm4.67,26.23h-4.41V28.45h4.41Z"/><path d="M192.18,49.56c-3.14,0-5.52-.92-7.16-2.75s-2.44-4.46-2.44-7.88.85-6.17,2.56-8,4.17-2.81,7.39-2.81a13.91,13.91,0,0,1,5.91,1.22l-1.33,3.54a13.41,13.41,0,0,0-4.61-1.08q-5.38,0-5.38,7.14a8.52,8.52,0,0,0,1.34,5.24,4.62,4.62,0,0,0,3.92,1.75A11.2,11.2,0,0,0,198,44.42v3.84a8.46,8.46,0,0,1-2.52,1A15.11,15.11,0,0,1,192.18,49.56Z"/><path d="M216.76,43.28a5.44,5.44,0,0,1-2.21,4.66,10.62,10.62,0,0,1-6.34,1.62,15,15,0,0,1-6.66-1.26V44.5a16.43,16.43,0,0,0,6.81,1.68q4.06,0,4.07-2.45a2,2,0,0,0-.45-1.32,5.33,5.33,0,0,0-1.48-1.08,26,26,0,0,0-2.87-1.28,13.24,13.24,0,0,1-4.85-2.77,5.17,5.17,0,0,1-1.26-3.6,4.73,4.73,0,0,1,2.14-4.14,10.2,10.2,0,0,1,5.84-1.47,16.48,16.48,0,0,1,6.92,1.48L215,32.87a15.52,15.52,0,0,0-5.65-1.39c-2.32,0-3.48.67-3.48,2a2,2,0,0,0,.9,1.65,20.21,20.21,0,0,0,4,1.86,17.91,17.91,0,0,1,3.73,1.82,5.43,5.43,0,0,1,1.73,1.9A5.58,5.58,0,0,1,216.76,43.28Z"/><path d="M230.58,49.56A10,10,0,0,1,223,46.74,10.73,10.73,0,0,1,220.28,39c0-3.38.85-6.05,2.54-8a8.71,8.71,0,0,1,7-2.91,8.56,8.56,0,0,1,6.49,2.49,9.54,9.54,0,0,1,2.38,6.87v2.38H224.82a6.82,6.82,0,0,0,1.63,4.64,5.69,5.69,0,0,0,4.33,1.62,15.51,15.51,0,0,0,3.43-.35,17.71,17.71,0,0,0,3.4-1.15v3.58a13.59,13.59,0,0,1-3.26,1.09A20.24,20.24,0,0,1,230.58,49.56Zm-.81-18.15a4.4,4.4,0,0,0-3.36,1.33,6.3,6.3,0,0,0-1.51,3.88h9.41a5.77,5.77,0,0,0-1.24-3.89A4.24,4.24,0,0,0,229.77,31.41Z"/><path d="M256.62,49.18l-.88-2.88h-.15a8.45,8.45,0,0,1-3,2.57,9.46,9.46,0,0,1-3.9.69,6.59,6.59,0,0,1-4.77-1.65,6.2,6.2,0,0,1-1.72-4.67,5.49,5.49,0,0,1,2.39-4.84q2.37-1.63,7.25-1.78l3.58-.11V35.4a4.2,4.2,0,0,0-.93-3,3.74,3.74,0,0,0-2.87-1,10,10,0,0,0-3.06.46A25.65,25.65,0,0,0,245.73,33l-1.43-3.15a15.48,15.48,0,0,1,3.7-1.34,16.72,16.72,0,0,1,3.78-.46q4,0,6,1.73t2,5.41v14Zm-6.56-3a5.42,5.42,0,0,0,3.85-1.34,4.84,4.84,0,0,0,1.46-3.76v-1.8l-2.67.12a9.08,9.08,0,0,0-4.53,1,3.16,3.16,0,0,0-1.41,2.84,2.75,2.75,0,0,0,.82,2.14A3.54,3.54,0,0,0,250.06,46.18Z"/><path d="M276.44,28.07a10.17,10.17,0,0,1,2.19.19l-.43,4.1a8.27,8.27,0,0,0-1.95-.22A5.63,5.63,0,0,0,272,33.86a6.23,6.23,0,0,0-1.64,4.49V49.18h-4.41V28.45h3.45L270,32.1h.23a8.13,8.13,0,0,1,2.69-2.94A6.35,6.35,0,0,1,276.44,28.07Z"/><path d="M290.84,49.56q-4.71,0-7.15-2.75t-2.45-7.88q0-5.24,2.56-8c1.71-1.87,4.17-2.81,7.4-2.81a13.9,13.9,0,0,1,5.9,1.22l-1.33,3.54a13.41,13.41,0,0,0-4.61-1.08q-5.39,0-5.38,7.14a8.52,8.52,0,0,0,1.34,5.24,4.63,4.63,0,0,0,3.93,1.75,11.23,11.23,0,0,0,5.57-1.46v3.84a8.52,8.52,0,0,1-2.53,1A15,15,0,0,1,290.84,49.56Z"/><path d="M319.73,49.18h-4.42V36.43a5.54,5.54,0,0,0-1-3.58,3.71,3.71,0,0,0-3.06-1.18,4.86,4.86,0,0,0-4.08,1.66q-1.31,1.66-1.3,5.56V49.18h-4.41V20h4.41v7.4a34.65,34.65,0,0,1-.23,3.81H306a6.12,6.12,0,0,1,2.51-2.32,8,8,0,0,1,3.74-.83q7.53,0,7.53,7.59Z"/><path class="cls-1" d="M8,40a32,32,0,0,0,1.05,8H48a8,8,0,0,0,8-8h0a8,8,0,0,0-8-8H9.09A32,32,0,0,0,8,40Z"/><path class="cls-2" d="M61.89,23.32A29.59,29.59,0,0,0,65,20a31.92,31.92,0,0,0-53.67,6H55.06A10.07,10.07,0,0,0,61.89,23.32Z"/><path class="cls-3" d="M55.06,54H11.33A31.92,31.92,0,0,0,65,60a29.59,29.59,0,0,0-3.11-3.32A10.07,10.07,0,0,0,55.06,54Z"/></svg>
