<svg xmlns="http://www.w3.org/2000/svg" xmlns:xlink="http://www.w3.org/1999/xlink" version="1.1" id="Layer_1" x="0px" y="0px" viewBox="0 0 501 101" style="enable-background:new 0 0 501 101;" xml:space="preserve"> <style type="text/css"> .st0{fill:#252B40;} </style> <path class="st0" d="M145.08,80.64h-27.69v-3.82c2.29,0,4.2-0.19,5.16-0.76c1.15-0.38,1.91-1.15,2.1-2.1 c0.38-0.95,0.57-2.1,0.57-3.63V35.77L104.4,80.64h-2.48l-21-44.68V68.8c0,1.72,0,3.06,0.19,4.01c0.19,0.96,0.38,1.72,0.95,2.29 s1.34,1.15,2.29,1.53c1.15,0.38,2.67,0.38,4.58,0.38v3.82H68.51v-3.82c1.91,0,3.44-0.19,4.58-0.57s1.91-0.76,2.29-1.53 c0.57-0.57,0.76-1.34,0.95-2.29c0.19-0.96,0.19-2.29,0.19-4.01V37.3c0-2.29-0.19-4.01-0.38-4.96c-0.19-0.95-0.96-1.72-2.1-2.29 c-1.15-0.57-2.86-0.76-5.54-0.76v-3.82h20.24l18.33,38.95l18.33-38.95h19.67v3.82c-3.44,0-5.54,0.57-6.49,1.53 c-0.96,0.95-1.53,2.67-1.53,4.96v34.56c0,1.53,0.19,2.67,0.57,3.63c0.38,0.96,1.15,1.72,2.29,2.1c1.15,0.57,2.86,0.76,5.35,0.76 v3.82H145.08z"/> <path class="st0" d="M190.9,72.05c0,2.1-0.38,3.82-1.34,5.35c-0.76,1.53-1.91,2.48-3.44,3.25c-1.34,0.76-3.06,0.96-4.77,0.96 c-2.29,0-4.2-0.57-5.73-1.53c-1.53-1.15-2.48-2.29-2.67-3.82c-4.58,3.63-9.17,5.54-13.56,5.54c-2.86,0-5.35-0.76-7.26-2.1 s-2.86-3.25-2.86-5.54c0-1.91,0.57-3.63,1.53-5.16c0.96-1.53,2.48-2.86,4.39-4.2c1.91-1.15,4.2-2.29,6.87-3.25 c2.67-0.96,6.11-1.91,10.12-2.86v-2.29c0-1.91-0.38-3.44-1.34-4.58c-0.95-1.15-2.67-1.72-4.96-1.72c-2.1,0-3.63,0.38-4.58,1.34 c-0.95,0.96-1.53,2.1-1.91,4.01c-0.19,1.34-0.57,2.29-1.15,3.06c-0.57,0.76-1.72,1.15-3.63,1.15c-1.15,0-2.1-0.38-3.06-0.95 c-0.95-0.57-1.34-1.53-1.34-2.86c0-2.48,1.34-4.77,4.01-6.49c2.67-1.91,6.87-2.86,12.6-2.86c5.92,0,10.12,0.95,12.22,3.06 c2.29,1.91,3.44,4.77,3.44,8.02v12.79c0,1.72,0,2.86,0.19,3.63c0,0.76,0.38,1.34,0.76,1.72c0.38,0.38,0.96,0.57,1.72,0.57 c0.76,0,1.34-0.38,1.91-1.15c0.57-0.76,0.76-1.53,0.76-2.67h3.05V72.05z M172.19,72.24V62.12c-5.16,1.72-8.4,3.25-9.74,4.77 c-1.34,1.53-2.1,3.06-2.1,4.58c0,1.34,0.38,2.29,1.15,3.06c0.76,0.76,1.91,1.15,3.25,1.15c1.53,0,2.86-0.38,4.01-0.95 C169.71,74.15,170.85,73.38,172.19,72.24z"/> <path class="st0" d="M229.09,52.38c0,1.53-0.57,2.86-1.53,3.63c-0.95,0.96-2.1,1.34-3.44,1.34c-1.53,0-2.86-0.76-4.01-2.29 c-0.57-0.76-0.95-1.15-1.34-1.53c-0.38-0.38-0.76-0.38-1.53-0.38c-2.1,0-3.82,1.15-4.96,3.44s-1.72,4.58-1.72,7.07v7.07 c0,2.29,0.38,3.82,0.95,4.58c0.57,0.76,2.1,1.34,4.58,1.34h2.1v3.82H193v-3.82h2.1c2.29,0,3.63-0.38,4.2-1.34 c0.57-0.96,0.76-2.48,0.76-4.58V58.87c0-1.72-0.19-3.05-0.57-3.82c-0.38-0.76-0.95-1.34-1.91-1.53c-0.95-0.19-2.48-0.38-4.58-0.38 v-3.82l15.85-3.44c0.38,1.34,0.76,4.39,1.15,8.78c0.76-1.53,1.72-3.06,3.05-4.39c1.15-1.34,2.67-2.48,4.2-3.25 c1.53-0.76,3.06-1.15,4.77-1.15c2.29,0,4.01,0.57,5.35,1.91C228.52,49.13,229.09,50.66,229.09,52.38z"/> <path class="st0" d="M275.3,80.64h-20.24v-3.82c2.29,0,3.63-0.38,3.63-1.34c0-0.57-0.38-1.34-0.95-2.1l-7.45-9.74l-4.2,2.86v5.16 c0,1.72,0.19,2.86,0.57,3.63c0.38,0.76,0.76,1.15,1.34,1.34c0.57,0.19,1.53,0.19,2.86,0.19v3.82h-21v-3.82 c1.53,0,2.86-0.19,3.63-0.38c0.76-0.38,1.34-0.95,1.72-1.72c0.38-0.76,0.57-2.1,0.57-3.82V36.34c0-1.34-0.19-2.29-0.57-2.86 c-0.38-0.57-0.95-0.95-1.72-1.15c-0.76-0.19-1.91-0.38-3.63-0.38v-3.82l16.42-3.63v37.43l11.46-7.83c0.76-0.57,1.15-0.95,1.53-1.15 c0.19-0.19,0.38-0.57,0.38-0.76c0-0.76-0.57-1.15-1.91-1.15h-2.29v-3.82h17.19v3.82c-2.86,0.19-5.92,1.53-9.17,3.82l-4.2,2.86 l10.88,14.7c1.15,1.53,2.1,2.48,2.86,3.25c0.76,0.76,1.53,1.15,2.48,1.15v3.82H275.3z"/> <path class="st0" d="M372.88,63.84c0,3.63-0.95,6.87-2.67,9.55c-1.72,2.67-4.2,4.77-7.26,6.3c-3.05,1.53-6.3,2.1-9.93,2.1 c-3.44,0-6.68-0.57-9.74-1.91c-3.06-1.34-5.54-3.44-7.45-6.11c-1.91-2.67-2.86-6.11-2.86-9.93c0-5.92,1.91-10.31,5.92-13.37 c4.01-3.06,8.78-4.58,14.32-4.58c4.2,0,7.64,0.76,10.69,2.48c3.05,1.72,5.16,3.82,6.68,6.49C372.11,57.73,372.88,60.59,372.88,63.84 z M361.8,63.65c0-4.58-0.57-8.02-1.91-10.31c-1.15-2.29-3.63-3.44-7.07-3.44c-2.29,0-4.01,0.57-5.35,1.53 c-1.34,0.96-2.1,2.48-2.67,4.77c-0.57,2.1-0.76,4.96-0.76,8.21c0,4.2,0.57,7.45,1.72,10.12c1.15,2.48,3.63,3.82,7.26,3.82 c2.48,0,4.39-0.76,5.54-2.1c1.34-1.34,2.1-3.25,2.48-5.35C361.61,68.61,361.8,66.32,361.8,63.65z"/> <path class="st0" d="M418.89,49.52c0,0.95-0.19,1.72-0.76,2.29s-1.15,0.95-1.72,0.95c-0.76,0-1.72-0.38-2.48-1.15 c-0.19,0-0.38-0.19-0.76-0.57c-0.38-0.19-0.57-0.38-0.76-0.57c-0.19-0.19-0.38-0.19-0.76-0.19c-0.76,0-1.53,0.19-1.91,0.76 c0.95,1.15,1.72,2.29,2.1,3.25c0.57,0.95,0.76,2.29,0.76,4.01c0,2.1-0.57,4.01-1.53,5.54c-0.95,1.53-2.29,2.48-3.82,3.44 c-1.53,0.76-3.25,1.34-4.96,1.72c-1.72,0.38-3.82,0.76-6.49,1.15c-6.3,0.76-9.55,2.1-9.55,3.82c0,0.76,0.38,1.34,1.53,1.53 c0.95,0.38,2.29,0.38,4.2,0.38h6.11c1.91,0,3.82,0.19,5.73,0.38c1.91,0.19,3.63,0.76,5.54,1.34c1.91,0.76,3.44,1.91,4.77,3.63 c1.34,1.72,1.91,3.82,1.91,6.49c0,1.91-0.57,4.01-1.72,5.92c-1.15,1.91-3.44,3.63-6.49,5.16c-3.06,1.34-7.26,2.1-12.41,2.1 c-4.01,0-8.21-0.57-12.22-1.53c-4.01-1.15-6.11-3.44-6.11-7.26c0-1.34,0.38-2.48,1.15-3.63c0.76-1.15,1.91-1.53,3.44-1.53 c1.34,0,2.29,0.19,3.05,0.76c-0.57,0.96-0.95,1.91-0.95,3.06c0,1.72,0.95,3.25,3.06,4.58c2.1,1.34,5.16,1.91,9.36,1.91 c4.2,0,7.45-0.57,9.93-1.72c2.48-1.15,3.63-2.86,3.63-4.77c0-1.34-0.57-2.48-1.53-3.25c-0.95-0.76-2.48-1.15-4.39-1.34 c-1.91-0.19-4.96-0.38-8.97-0.38c-4.96,0-8.78-0.57-11.65-1.72c-2.86-0.96-4.2-3.25-4.2-6.49c0-2.86,1.15-4.77,3.25-6.11 c2.1-1.34,4.77-2.29,7.83-2.86c-7.26-1.34-10.88-4.77-10.88-10.31c0-1.72,0.57-3.63,1.53-5.54c0.96-1.91,2.67-3.44,5.16-4.77 c2.48-1.34,5.73-1.91,9.93-1.91c5.35,0,9.36,1.34,12.22,3.82c1.72-2.48,3.82-3.63,6.49-3.63c1.34,0,2.48,0.38,3.25,0.95 C418.51,47.8,418.89,48.56,418.89,49.52z M402.09,58.11c0-2.29-0.57-4.39-1.53-5.92c-0.96-1.72-2.67-2.48-4.77-2.48 c-2.29,0-4.01,0.76-4.96,2.29c-0.96,1.53-1.53,3.44-1.53,5.73s0.38,4.2,1.34,6.11c0.95,1.91,2.67,2.86,5.16,2.86 c1.91,0,3.44-0.76,4.58-2.1C401.52,62.88,402.09,60.78,402.09,58.11z"/> <path class="st0" d="M445.24,80.64h-21.96v-3.82h1.15c1.53,0,2.67-0.19,3.44-0.57c0.76-0.38,1.15-0.95,1.34-1.91 c0.19-0.76,0.19-1.91,0.19-3.44V58.87c0-1.72-0.19-2.86-0.38-3.63c-0.19-0.76-0.76-1.15-1.53-1.53c-0.76-0.38-2.29-0.57-4.2-0.57 v-3.82l16.61-3.44V70.9c0,2.29,0.19,3.82,0.76,4.58c0.57,0.76,2.1,1.34,4.58,1.34V80.64z M440.66,30.04c0,1.72-0.57,3.06-1.72,4.2 c-1.15,1.15-2.48,1.72-4.2,1.72c-1.53,0-3.05-0.57-4.2-1.72c-1.15-1.15-1.72-2.48-1.72-4.2c0-1.53,0.57-3.06,1.72-4.2 c1.15-1.15,2.48-1.72,4.2-1.72s3.06,0.57,4.2,1.72C440.09,26.98,440.66,28.32,440.66,30.04z"/> <path class="st0" d="M483.62,72.24c-3.24,6.3-8.59,9.55-15.85,9.55c-3.44,0-6.68-0.76-9.55-2.1c-3.06-1.34-5.35-3.44-7.26-5.92 c-1.91-2.67-2.67-5.73-2.67-9.17c0-2.48,0.57-4.77,1.53-7.06c0.96-2.29,2.48-4.2,4.2-5.92c1.91-1.72,4.01-3.25,6.68-4.2 c2.48-0.95,5.35-1.53,8.21-1.53c3.82,0,7.07,0.76,9.93,2.29c2.86,1.53,4.2,3.44,4.2,6.11c0,1.15-0.38,2.29-1.33,3.06 c-0.96,0.76-1.91,1.34-3.06,1.34c-1.15,0-1.91-0.19-2.48-0.76c-0.57-0.57-0.95-0.95-1.15-1.53c-0.19-0.57-0.38-1.53-0.76-2.86 c-0.38-1.34-0.96-2.29-1.72-2.86c-0.77-0.57-1.91-0.76-3.44-0.76c-2.48,0-4.58,0.95-6.49,2.67c-1.91,1.72-2.86,5.16-2.86,10.31 c0,2.67,0.38,5.16,1.15,7.45c0.77,2.29,1.91,4.01,3.63,5.35s3.62,1.91,6.11,1.91c2.67,0,4.78-0.57,6.11-1.91 c1.34-1.34,2.68-2.86,3.82-4.58L483.62,72.24z"/> <path class="st0" d="M307,76.06c2.86,0,5.54-0.19,7.83-0.76c2.29-0.38,4.58-1.72,6.49-3.82c1.91-2.1,3.25-5.16,3.63-9.36h3.82 l-0.38,18.33H307h-0.19h-26.54v-3.82c3.44,0,5.54-0.57,6.49-1.53c0.95-0.95,1.53-2.67,1.53-4.96V35.77c0-1.53-0.19-2.86-0.57-3.63 c-0.38-0.95-1.15-1.53-2.29-2.1c-1.15-0.57-2.86-0.76-5.35-0.76v-3.82h27.69v3.82c-2.29,0-4.01,0.19-5.16,0.76 c-1.15,0.38-1.91,1.15-2.29,1.91c-0.38,0.95-0.57,2.1-0.57,3.82v31.7c0,2.48,0.19,4.2,0.38,5.35c0.19,1.15,0.96,1.91,1.91,2.48 C303.37,75.68,304.71,76.06,307,76.06z"/> <path class="st0" d="M33.37,63.26c2.86,0,5.35-2.48,5.35-5.35V30.8c0-3.06-2.48-5.35-5.35-5.35H6.26c-2.86,0-5.35,2.48-5.35,5.35 v27.11c0,3.06,2.48,5.35,5.35,5.35H33.37z"/> <path class="st0" d="M58.2,21.83c2.29,0,4.2-1.91,4.2-4.2V4.26c0-2.29-1.91-4.2-4.2-4.2H44.83c-2.29,0-4.2,1.91-4.2,4.2v13.37 c0,2.29,1.91,4.2,4.2,4.2H58.2z"/> <path class="st0" d="M490.31,51.24c0-0.76,0.19-1.53,0.38-2.1c0.19-0.57,0.57-1.15,1.15-1.72c0.38-0.38,0.95-0.76,1.72-1.15 c0.57-0.19,1.34-0.38,2.1-0.38c0.77,0,1.53,0.19,2.1,0.38c0.57,0.19,1.15,0.57,1.72,1.15c0.38,0.38,0.76,0.96,1.15,1.72 c0.19,0.57,0.38,1.34,0.38,2.1c0,0.76-0.19,1.53-0.38,2.1c-0.19,0.57-0.57,1.15-1.15,1.72c-0.38,0.38-0.96,0.76-1.72,1.15 c-0.57,0.19-1.34,0.38-2.1,0.38c-0.76,0-1.53-0.19-2.1-0.38s-1.15-0.57-1.72-1.15c-0.38-0.38-0.77-0.95-1.15-1.72 C490.5,52.76,490.31,52,490.31,51.24z M491.45,51.24c0,0.57,0.19,1.15,0.38,1.72c0.19,0.57,0.38,0.95,0.77,1.34 c0.38,0.38,0.76,0.76,1.33,0.96c0.57,0.19,1.15,0.38,1.72,0.38s1.15-0.19,1.72-0.38c0.57-0.19,0.96-0.57,1.34-0.96 c0.38-0.38,0.57-0.76,0.77-1.34c0.19-0.57,0.38-1.15,0.38-1.72s-0.19-1.15-0.38-1.72c-0.19-0.57-0.38-0.96-0.77-1.34 s-0.77-0.76-1.34-0.95c-0.57-0.19-1.15-0.38-1.72-0.38s-1.15,0.19-1.72,0.38c-0.57,0.19-0.95,0.57-1.33,0.95 c-0.38,0.38-0.57,0.76-0.77,1.34C491.64,50.09,491.45,50.66,491.45,51.24z M496.42,51.81l1.53,2.29h-1.33l-1.34-2.1h-0.57v2.1h-1.15 v-5.35h1.91c0.19,0,0.57,0,0.76,0c0.19,0,0.57,0.19,0.77,0.19c0.19,0.19,0.38,0.38,0.57,0.57c0.19,0.19,0.19,0.38,0.19,0.76 c0,0.38-0.19,0.76-0.38,0.96C497.18,51.43,496.8,51.62,496.42,51.81z M494.89,49.52v1.53h0.57c0.38,0,0.76,0,0.95-0.19 c0.19-0.19,0.38-0.38,0.38-0.57c0-0.19,0-0.38-0.19-0.57c-0.19-0.19-0.38-0.19-0.77-0.19H494.89z"/> <g> </g> <g> </g> <g> </g> <g> </g> <g> </g> <g> </g> <g> </g> <g> </g> <g> </g> <g> </g> <g> </g> <g> </g> <g> </g> <g> </g> <g> </g> </svg>
