<?xml version="1.0" encoding="utf-8"?>
<!-- Generator: Adobe Illustrator 15.0.0, SVG Export Plug-In . SVG Version: 6.00 Build 0)  -->
<!DOCTYPE svg PUBLIC "-//W3C//DTD SVG 1.1//EN" "http://www.w3.org/Graphics/SVG/1.1/DTD/svg11.dtd">
<svg version="1.1" id="Layer_1" xmlns="http://www.w3.org/2000/svg" xmlns:xlink="http://www.w3.org/1999/xlink" x="0px" y="0px"
	 width="32.67px" height="32.671px" viewBox="0 0 32.67 32.671" enable-background="new 0 0 32.67 32.671" xml:space="preserve">
<circle fill="#232E44" cx="16.243" cy="16.272" r="16.271"/>
<path fill="#FFFFFF" d="M21.927,20.744H9.428l2.492-2.563c0.204-0.203,0.316-0.478,0.316-0.767c0-0.282-0.113-0.555-0.31-0.75
	c-0.199-0.201-0.467-0.314-0.748-0.314c-0.279,0-0.541,0.107-0.735,0.304L6.12,20.978c-0.201,0.198-0.311,0.465-0.311,0.745
	c0,0.279,0.109,0.541,0.309,0.74l0.221,0.22l4.104,4.107c0.2,0.198,0.463,0.307,0.744,0.307c0.28,0,0.543-0.108,0.741-0.307
	s0.308-0.455,0.308-0.724c0-0.271-0.109-0.527-0.308-0.727l-2.573-2.497h12.571c0.58,0,1.05-0.471,1.05-1.049
	C22.977,21.214,22.507,20.744,21.927,20.744z"/>
<path fill="#FFFFFF" d="M22.044,5.913c-0.198-0.198-0.46-0.307-0.743-0.307c-0.278,0-0.542,0.108-0.738,0.307
	c-0.2,0.199-0.31,0.455-0.31,0.727c0,0.269,0.109,0.524,0.308,0.723l2.572,2.497h-12.57c-0.579,0-1.048,0.473-1.048,1.051
	c0,0.579,0.469,1.05,1.048,1.05H23.06l-2.492,2.561c-0.197,0.2-0.314,0.484-0.314,0.767c0,0.282,0.113,0.555,0.31,0.751
	c0.2,0.201,0.466,0.311,0.749,0.311c0.277,0,0.539-0.106,0.735-0.303l4.321-4.322c0.201-0.198,0.311-0.463,0.311-0.745
	c0-0.278-0.109-0.542-0.309-0.74L22.044,5.913z"/>
</svg>
