<?xml version="1.0" encoding="utf-8"?>
<!-- Generator: Adobe Illustrator 15.0.0, SVG Export Plug-In . SVG Version: 6.00 Build 0)  -->
<!DOCTYPE svg PUBLIC "-//W3C//DTD SVG 1.1//EN" "http://www.w3.org/Graphics/SVG/1.1/DTD/svg11.dtd">
<svg version="1.1" id="Layer_1" xmlns="http://www.w3.org/2000/svg" xmlns:xlink="http://www.w3.org/1999/xlink" x="0px" y="0px"
	 width="32.67px" height="32.671px" viewBox="0 0 32.67 32.671" enable-background="new 0 0 32.67 32.671" xml:space="preserve">
<circle fill="#232E44" cx="16.335" cy="16.247" r="16.335"/>
<g id="Your_Icon_1_">
	<path id="path42_1_" inkscape:connector-curvature="0" fill="#FFFFFF" d="M24.593,13.659c0,0,0,2.736,0,3.395
		c0,1.345-3.695,2.432-8.259,2.432c-4.561,0-8.257-1.087-8.257-2.432c0-0.66,0-3.395,0-3.395s2.166,2.048,8.257,2.048
		C23.233,15.708,24.593,13.659,24.593,13.659z"/>
	<path id="path44_1_" inkscape:connector-curvature="0" fill="#FFFFFF" d="M16.334,20.53c-6.091,0-8.257-2.049-8.257-2.049
		s0,3.926,0,4.588c0,1.341,3.696,2.43,8.257,2.43c4.563,0,8.259-1.089,8.259-2.43c0-0.662,0-4.588,0-4.588
		S23.233,20.53,16.334,20.53z M16.405,22.049c0.483,0,0.876,0.394,0.876,0.878c0,0.483-0.393,0.876-0.876,0.876
		c-0.484,0-0.877-0.393-0.877-0.876C15.528,22.442,15.921,22.049,16.405,22.049z"/>
	<path id="path46_1_" inkscape:connector-curvature="0" fill="#FFFFFF" d="M16.334,6.394c4.563,0,8.259,1.088,8.259,2.432
		c0,0.088,0,0.202,0,0.333c-1.215,0.894-4.079,1.612-7.433,1.771c-0.426,0.022-0.847,0.033-1.257,0.035
		c0.248,0.012,0.502,0.021,0.759,0.03c3.758,0.092,6.958-0.565,7.931-1.536c0,0.895,0,2.253,0,2.766
		c0,1.341-3.695,2.431-8.259,2.431c-4.561,0-8.257-1.09-8.257-2.431c0-0.662,0-2.739,0-3.399C8.075,7.482,11.773,6.394,16.334,6.394
		z"/>
</g>
</svg>
