<?xml version="1.0" encoding="utf-8"?>
<!-- Generator: Adobe Illustrator 16.0.0, SVG Export Plug-In . SVG Version: 6.00 Build 0)  -->
<!DOCTYPE svg PUBLIC "-//W3C//DTD SVG 1.1//EN" "http://www.w3.org/Graphics/SVG/1.1/DTD/svg11.dtd">
<svg version="1.1" id="Layer_1" xmlns="http://www.w3.org/2000/svg" xmlns:xlink="http://www.w3.org/1999/xlink" x="0px" y="0px"
	 width="128px" height="128px" viewBox="0 0 128 128" enable-background="new 0 0 128 128" xml:space="preserve">
<g>
	<path fill="#333333" d="M123.911,96.607L86.749,59.492c7.55-22.265-3.938-46.746-26.107-55.066
		C55.7,2.574,50.53,1.635,45.262,1.635c-11.721,0-22.735,4.565-31.01,12.852C5.96,22.75,1.389,33.743,1.372,45.448
		C1.355,57.149,5.897,68.16,14.161,76.445c8.275,8.304,19.294,12.881,31.033,12.881c4.799,0,9.524-0.776,14.062-2.317l5.375,5.376
		c1.46,1.467,3.407,2.277,5.479,2.277h5.957v4.891c0,4.816,3.916,8.73,8.731,8.73h4.886v5.945c0.017,2.062,0.826,3.996,2.281,5.457
		l4.561,4.56c1.347,1.307,3.127,2.024,5.027,2.037h18.004c3.578-0.007,6.488-2.923,6.5-6.5v-18.027
		C126.039,99.814,125.279,97.988,123.911,96.607z M93.277,98.564h-7.682v-7.594c0-3.271-2.658-5.931-5.924-5.931h-8.834
		l-7.042-7.042c-1.375-1.363-3.475-1.773-5.267-1.032c-4.24,1.786-8.697,2.693-13.256,2.693c-13.805,0-26.182-8.224-31.535-20.944
		c-5.416-12.857-2.545-27.546,7.311-37.427c6.454-6.457,15.042-10.015,24.179-10.015s17.725,3.561,24.185,10.023
		c9.885,9.884,12.761,24.593,7.328,37.476c-0.761,1.812-0.354,3.878,1.026,5.259l38.668,38.664v13.981h-13.885l-3.35-3.338v-8.846
		C99.201,101.225,96.542,98.564,93.277,98.564z"/>
	<path fill="#333333" d="M36.839,21.833c-8.412,0-15.26,6.845-15.26,15.26c0,8.412,6.848,15.256,15.26,15.256
		s15.26-6.845,15.26-15.256C52.099,28.679,45.25,21.833,36.839,21.833z M36.839,42.845c-3.116,0-5.649-2.534-5.649-5.655
		c-0.006-1.509,0.582-2.927,1.644-3.995c0.964-0.967,2.214-1.543,3.566-1.646h0.439c3.116,0,5.649,2.534,5.649,5.647
		C42.488,40.312,39.955,42.845,36.839,42.845z"/>
</g>
</svg>
