<?xml version="1.0" encoding="utf-8"?>
<!-- Generator: Adobe Illustrator 16.0.0, SVG Export Plug-In . SVG Version: 6.00 Build 0)  -->
<!DOCTYPE svg PUBLIC "-//W3C//DTD SVG 1.1//EN" "http://www.w3.org/Graphics/SVG/1.1/DTD/svg11.dtd">
<svg version="1.1" id="Layer_1" xmlns="http://www.w3.org/2000/svg" xmlns:xlink="http://www.w3.org/1999/xlink" x="0px" y="0px"
	 width="128px" height="128px" viewBox="0 0 128 128" enable-background="new 0 0 128 128" xml:space="preserve">
<g>
	<path fill="#333333" d="M9.76,70.689l-2.103,7.578H0.736L9.76,48.742h8.762l9.156,29.525h-7.185l-2.278-7.578H9.76z M17.251,65.695
		l-1.84-6.264c-0.526-1.752-1.051-3.943-1.489-5.695h-0.088c-0.438,1.752-0.876,3.986-1.358,5.695l-1.752,6.264H17.251z"/>
	<path fill="#333333" d="M48.614,64.557v4.426H37.136v-4.426H48.614z"/>
	<path fill="#333333" d="M69.99,68.631L48.963,78.27v-4.645l16.253-6.966v-0.087l-16.253-6.966v-4.644L69.99,64.6V68.631z"/>
	<path fill="#333333" d="M86.546,50.889c0,1.84-1.401,3.329-3.592,3.329c-2.103,0-3.505-1.489-3.461-3.329
		c-0.044-1.928,1.358-3.374,3.505-3.374S86.502,48.961,86.546,50.889z M79.668,78.27V56.847h6.659V78.27H79.668z"/>
	<path fill="#333333" d="M90.793,63.681c0-2.672-0.087-4.951-0.175-6.834H96.4l0.307,2.935h0.132
		c0.876-1.358,3.065-3.417,6.615-3.417c4.381,0,7.666,2.891,7.666,9.199V78.27h-6.658V66.396c0-2.76-0.964-4.645-3.374-4.645
		c-1.84,0-2.936,1.271-3.373,2.497c-0.175,0.396-0.263,1.052-0.263,1.665v12.354h-6.659V63.681z"/>
	<path fill="#333333" d="M122.771,50.713v6.133h4.773v4.906h-4.773v7.754c0,2.585,0.612,3.768,2.627,3.768
		c0.832,0,1.49-0.088,1.973-0.174l0.044,5.036c-0.877,0.351-2.454,0.57-4.337,0.57c-2.146,0-3.943-0.745-4.994-1.84
		c-1.227-1.271-1.841-3.33-1.841-6.353v-8.763h-2.847v-4.906h2.847v-4.644L122.771,50.713z"/>
</g>
</svg>
