<?xml version="1.0" encoding="utf-8"?>
<!-- Generator: Adobe Illustrator 16.0.0, SVG Export Plug-In . SVG Version: 6.00 Build 0)  -->
<!DOCTYPE svg PUBLIC "-//W3C//DTD SVG 1.1//EN" "http://www.w3.org/Graphics/SVG/1.1/DTD/svg11.dtd">
<svg version="1.1" id="Layer_1" xmlns="http://www.w3.org/2000/svg" xmlns:xlink="http://www.w3.org/1999/xlink" x="0px" y="0px"
	 width="128px" height="128px" viewBox="0 0 128 128" enable-background="new 0 0 128 128" xml:space="preserve">
<g>
	<g>
		<path fill="#5677FC" d="M111.76,4.349H16.331c-8.102,0-14.698,6.589-14.698,14.698v88.828c0,8.107,6.596,14.697,14.698,14.697
			h95.429c8.102,0,14.691-6.59,14.691-14.697V19.046C126.451,10.938,119.861,4.349,111.76,4.349z M120.146,107.874
			c0,4.629-3.764,8.393-8.386,8.393H16.331c-4.629,0-8.393-3.764-8.393-8.393V41.035h112.208V107.874z M120.146,34.73H7.938V19.046
			c0-4.629,3.764-8.393,8.393-8.393h95.429c4.622,0,8.386,3.764,8.386,8.393V34.73L120.146,34.73z"/>
		<path fill="#5677FC" d="M111.76,124.12H16.331c-8.961,0-16.247-7.285-16.247-16.246V19.046C0.084,10.088,7.369,2.8,16.331,2.8
			h95.429c8.955,0,16.24,7.288,16.24,16.247v88.828C128,116.835,120.715,124.12,111.76,124.12z M16.331,5.898
			c-7.249,0-13.148,5.899-13.148,13.148v88.828c0,7.249,5.899,13.148,13.148,13.148h95.429c7.249,0,13.143-5.899,13.143-13.148
			V19.046c0-7.249-5.894-13.148-13.143-13.148H16.331z M111.76,117.815H16.331c-5.482,0-9.941-4.46-9.941-9.941V39.486h115.306
			v68.388C121.695,113.355,117.235,117.815,111.76,117.815z M9.487,42.584v65.29c0,3.77,3.067,6.843,6.843,6.843h95.429
			c3.77,0,6.837-3.073,6.837-6.843v-65.29H9.487z M121.695,36.279H6.389V19.046c0-5.482,4.459-9.942,9.941-9.942h95.429
			c5.476,0,9.936,4.46,9.936,9.942V36.279z M9.487,33.181h109.109V19.046c0-3.773-3.067-6.844-6.837-6.844H16.331
			c-3.776,0-6.843,3.071-6.843,6.844V33.181z"/>
	</g>
	<g>
		<path fill="#5677FC" d="M34.126,95.506c5.24,0,9.5-4.26,9.5-9.5c0-1.556-0.381-3.025-1.053-4.32l7.625-8.023
			c1.186,0.532,2.493,0.835,3.873,0.835c1.379,0,2.698-0.303,3.884-0.835l7.612,8.023c-0.665,1.295-1.052,2.765-1.052,4.32
			c0,5.24,4.259,9.5,9.5,9.5s9.5-4.26,9.5-9.5c0-1.556-0.381-3.025-1.047-4.32l7.618-8.023c1.187,0.532,2.493,0.835,3.873,0.835
			c5.239,0,9.5-4.267,9.5-9.506c0-5.234-4.261-9.5-9.5-9.5c-5.24,0-9.5,4.266-9.5,9.5c0,1.561,0.387,3.032,1.053,4.327l-7.618,8.023
			c-1.18-0.532-2.499-0.835-3.879-0.835c-1.379,0-2.687,0.303-3.879,0.835l-7.618-8.023c0.672-1.295,1.053-2.766,1.053-4.327
			c0-5.234-4.26-9.5-9.5-9.5c-5.24,0-9.5,4.266-9.5,9.5c0,1.561,0.381,3.032,1.053,4.327l-7.618,8.023
			c-1.186-0.532-2.499-0.835-3.878-0.835c-5.24,0-9.5,4.26-9.5,9.5S28.886,95.506,34.126,95.506z M93.964,61.796
			c1.761,0,3.194,1.434,3.194,3.195c0,1.767-1.434,3.201-3.194,3.201s-3.201-1.434-3.201-3.201
			C90.763,63.23,92.203,61.796,93.964,61.796z M74.02,82.811c1.761,0,3.195,1.428,3.195,3.195c0,1.767-1.435,3.201-3.195,3.201
			c-1.767,0-3.2-1.435-3.2-3.201C70.819,84.238,72.253,82.811,74.02,82.811z M54.07,61.796c1.767,0,3.201,1.434,3.201,3.195
			c0,1.767-1.434,3.201-3.201,3.201c-1.761,0-3.195-1.434-3.195-3.201C50.875,63.23,52.309,61.796,54.07,61.796z M34.126,82.811
			c1.767,0,3.195,1.428,3.195,3.195c0,1.767-1.428,3.201-3.195,3.201c-1.767,0-3.195-1.435-3.195-3.201
			C30.932,84.238,32.359,82.811,34.126,82.811z"/>
	</g>
</g>
</svg>
