<?xml version="1.0" encoding="utf-8"?>
<!-- Generator: Adobe Illustrator 16.0.0, SVG Export Plug-In . SVG Version: 6.00 Build 0)  -->
<!DOCTYPE svg PUBLIC "-//W3C//DTD SVG 1.1//EN" "http://www.w3.org/Graphics/SVG/1.1/DTD/svg11.dtd">
<svg version="1.1" id="Layer_1" xmlns="http://www.w3.org/2000/svg" xmlns:xlink="http://www.w3.org/1999/xlink" x="0px" y="0px"
	 width="128px" height="128px" viewBox="0 0 128 128" enable-background="new 0 0 128 128" xml:space="preserve">
<g>
	<path fill="#5677FC" d="M63.714,0.779c-26.67,0-55.377,8.173-55.377,26.114v74.132c0,17.943,28.707,26.114,55.377,26.114
		s55.377-8.171,55.377-26.114V26.893C119.091,8.952,90.384,0.779,63.714,0.779z M63.714,71.013c-24.973,0-46.071-7.641-46.06-16.812
		l-0.012-0.749V42.265c9.785,6.742,26.828,10.736,46.071,10.736c19.237,0,36.292-3.994,46.077-10.736v12.059
		C109.791,63.372,88.692,71.013,63.714,71.013z M63.714,94.423c-24.973,0-46.071-7.644-46.06-16.809l-0.012-0.749V64.776
		c8.246,7.114,25.985,11.632,46.071,11.632s37.825-4.518,46.077-11.632v12.955C109.791,86.779,88.692,94.423,63.714,94.423z
		 M17.643,88.184c8.246,7.117,25.985,11.646,46.071,11.646s37.825-4.529,46.077-11.646v12.841c0,9.118-21.099,16.82-46.077,16.82
		c-24.973,0-46.071-7.702-46.071-16.82V88.184z M63.714,43.701c-24.973,0-46.071-7.696-46.071-16.809
		c0-9.115,21.099-16.814,46.071-16.814c24.979,0,46.077,7.699,46.077,16.814C109.791,36.005,88.692,43.701,63.714,43.701z"/>
	<path fill="#5677FC" d="M98.829,107.626c2.569,0,4.659-2.084,4.659-4.647c0-2.562-2.09-4.646-4.659-4.646
		c-2.563,0-4.646,2.084-4.646,4.646C94.183,105.542,96.266,107.626,98.829,107.626z"/>
	<path fill="#5677FC" d="M98.829,74.91c-2.563,0-4.646,2.089-4.646,4.658c0,2.563,2.083,4.647,4.646,4.647
		c2.569,0,4.659-2.084,4.659-4.647C103.488,76.999,101.398,74.91,98.829,74.91z"/>
	<path fill="#5677FC" d="M98.829,51.503c-2.563,0-4.646,2.086-4.646,4.653c0,2.566,2.083,4.653,4.646,4.653
		c2.569,0,4.659-2.087,4.659-4.653C103.488,53.589,101.398,51.503,98.829,51.503z"/>
</g>
</svg>
