<?xml version="1.0" encoding="utf-8"?>
<!-- Generator: Adobe Illustrator 16.0.0, SVG Export Plug-In . SVG Version: 6.00 Build 0)  -->
<!DOCTYPE svg PUBLIC "-//W3C//DTD SVG 1.1//EN" "http://www.w3.org/Graphics/SVG/1.1/DTD/svg11.dtd">
<svg version="1.1" id="Layer_1" xmlns="http://www.w3.org/2000/svg" xmlns:xlink="http://www.w3.org/1999/xlink" x="0px" y="0px"
	 width="128px" height="128px" viewBox="0 0 128 128" enable-background="new 0 0 128 128" xml:space="preserve">
<g>
	<g>
		<path fill="#5677FC" d="M61.444,40.726c-0.454,0-0.909-0.087-1.341-0.266L34.931,30.109c-1.226-0.505-2.066-1.653-2.171-2.975
			c-0.11-1.317,0.532-2.589,1.662-3.287L72.135,0.584c1.027-0.629,2.304-0.703,3.388-0.169L90.33,7.58
			c1.033,0.5,1.763,1.478,1.942,2.612c0.183,1.138-0.202,2.295-1.028,3.094L63.895,39.734
			C63.225,40.381,62.339,40.726,61.444,40.726z M44.006,26.22l16.644,6.844l22.065-21.34l-8.523-4.122L44.006,26.22z"/>
	</g>
	<g>
		<path fill="#5677FC" d="M58.566,127.597c-1.235,0-2.41-0.652-3.053-1.759l-41.56-71.787c-0.711-1.229-0.615-2.763,0.244-3.896
			L33.461,24.72c0.964-1.276,2.667-1.74,4.149-1.129l25.173,10.351c1.363,0.56,2.231,1.905,2.185,3.374l-2.877,86.871
			c-0.055,1.574-1.144,2.924-2.667,3.305C59.139,127.564,58.85,127.597,58.566,127.597z M21.229,52.546l34.22,59.108l2.392-72.122
			l-20.399-8.391L21.229,52.546z"/>
	</g>
	<g>
		<path fill="#5677FC" d="M58.566,127.597c-0.326,0-0.657-0.046-0.982-0.143c-1.547-0.45-2.593-1.892-2.543-3.498l2.878-86.871
			c0.032-0.917,0.417-1.781,1.074-2.419L86.342,8.217c0.863-0.835,2.093-1.17,3.268-0.895c1.171,0.28,2.116,1.134,2.511,2.272
			l13.573,39.049c0.341,0.978,0.234,2.057-0.288,2.947l-43.801,74.271C60.958,126.959,59.791,127.597,58.566,127.597z
			 M64.918,38.743l-2.373,71.64l35.956-60.968L87.272,17.123L64.918,38.743z"/>
	</g>
</g>
</svg>
