<?xml version="1.0" encoding="utf-8"?>
<!-- Generator: Adobe Illustrator 16.0.0, SVG Export Plug-In . SVG Version: 6.00 Build 0)  -->
<!DOCTYPE svg PUBLIC "-//W3C//DTD SVG 1.1//EN" "http://www.w3.org/Graphics/SVG/1.1/DTD/svg11.dtd">
<svg version="1.1" id="Layer_1" xmlns="http://www.w3.org/2000/svg" xmlns:xlink="http://www.w3.org/1999/xlink" x="0px" y="0px"
	 width="128px" height="128px" viewBox="0 0 128 128" enable-background="new 0 0 128 128" xml:space="preserve">
<g>
	<g>
		<g>
			<path fill="#5677FC" d="M89.592,91.892c-15.843,0-29.309-11.335-32.013-26.943c-3.071-17.693,8.812-34.599,26.484-37.677
				c18.107-3.141,34.613,9.023,37.638,26.493c1.503,8.522-0.416,17.142-5.402,24.251c-4.996,7.128-12.48,11.884-21.063,13.381
				C93.353,91.734,91.451,91.892,89.592,91.892z M89.694,37.499c-1.243,0-2.511,0.106-3.784,0.332
				c-11.866,2.064-19.839,13.411-17.793,25.283c2.059,11.703,13.176,19.862,25.271,17.726c5.764-0.995,10.785-4.194,14.142-8.978
				c3.331-4.756,4.61-10.532,3.615-16.257C109.316,45.106,100.312,37.499,89.694,37.499z"/>
		</g>
	</g>
	<g>
		<g>
			<path fill="#5677FC" d="M122.498,100.208c-1.449,0-2.896-0.591-3.959-1.738l-14.274-15.607c-2.011-2.174-1.848-5.565,0.332-7.563
				c2.19-1.991,5.571-1.857,7.574,0.333l14.273,15.602c2.005,2.18,1.849,5.571-0.325,7.569
				C125.081,99.737,123.802,100.208,122.498,100.208z"/>
		</g>
	</g>
</g>
<g>
	<path fill="#5677FC" d="M23.176,116C13.912,116,6,105,6,99.037V27.963C6,21.999,17.213,17,23.176,17H80v-6H23.176
		C13.803,11,0,18.589,0,27.963v71.074C0,108.411,8.764,122,23.176,122H80v-6H23.176z"/>
	<path fill="#5677FC" d="M83.436,122H23.176C7.255,122,0,110.204,0,99.037V27.963C0,16.914,12.132,5,23.176,5h60.259
		C85.144,5,87,6.168,87,7.876v6.181C87,15.765,85.144,17,83.436,17H23.176C18.934,17,12,23.717,12,27.963v71.074
		C12,103.396,15.801,110,23.176,110h60.259c1.708,0,3.564,1.235,3.564,2.943v6.181C87,120.832,85.144,122,83.436,122z M6.181,99.003
		c0,7.841,4.454,16.997,16.996,16.997h57.169H23.176C12.681,116,6.181,107.176,6.181,99.003z"/>
</g>
</svg>
