<?xml version="1.0" encoding="utf-8"?>
<!-- Generator: Adobe Illustrator 16.0.0, SVG Export Plug-In . SVG Version: 6.00 Build 0)  -->
<!DOCTYPE svg PUBLIC "-//W3C//DTD SVG 1.1//EN" "http://www.w3.org/Graphics/SVG/1.1/DTD/svg11.dtd">
<svg version="1.1" id="Layer_1" xmlns="http://www.w3.org/2000/svg" xmlns:xlink="http://www.w3.org/1999/xlink" x="0px" y="0px"
	 width="128px" height="128px" viewBox="0 0 128 128" enable-background="new 0 0 128 128" xml:space="preserve">
<g transform="translate(0,-952.36218)">
	<g>
		<path fill="#5677FC" d="M64.021,979.482c-6.354,0-12.124,2.668-16.25,6.908c-3.361-2.5-7.558-4.075-12.088-4.075
			c-11.096,0-19.833,8.8-19.833,19.837c0,5.004,1.731,9.651,4.779,13.24c-11.096,5.401-18.952,16.515-18.952,29.271
			c0,1.564,1.266,2.835,2.835,2.835h21.341c-0.07,0.937-0.091,1.879-0.091,2.834c0,1.564,1.271,2.83,2.84,2.83h70.842
			c1.569,0,2.835-1.266,2.835-2.83c0-0.955-0.011-1.897-0.082-2.834h21.343c1.563,0,2.834-1.271,2.834-2.835
			c0-12.756-7.855-23.869-18.951-29.271c3.042-3.589,4.778-8.236,4.778-13.24c0-11.037-8.742-19.837-19.839-19.837
			c-4.53,0-8.728,1.575-12.087,4.075C76.149,982.15,70.378,979.482,64.021,979.482z M64.021,985.15
			c9.425,0,17.007,7.577,17.007,17.002c0,5.614-2.936,10.092-7.35,13.286c-1.256,0.936-1.514,2.711-0.577,3.966
			c0.345,0.463,0.825,0.808,1.372,0.991c11.84,3.941,20.678,14.698,21.872,27.103H31.7c1.2-12.404,10.038-23.161,21.873-27.103
			c1.488-0.496,2.288-2.1,1.792-3.586c-0.182-0.549-0.531-1.027-0.992-1.371c-4.414-3.194-7.35-7.672-7.35-13.286
			C47.022,992.727,54.6,985.15,64.021,985.15z M35.684,987.982c3.209,0,6.247,1.121,8.676,2.923
			c-1.914,3.323-3.007,7.15-3.007,11.247c0,5.87,2.45,10.855,6.11,14.7c-10.169,4.85-17.924,14.048-20.638,24.977H7.57
			c1.194-10.504,8.889-19.477,19.083-22.85c1.478-0.512,2.258-2.129,1.747-3.605c-0.187-0.541-0.531-1.014-0.998-1.353
			c-3.624-2.61-5.892-6.96-5.892-11.869C21.51,994.018,27.493,987.982,35.684,987.982z M92.362,987.982
			c8.19,0,14.169,6.036,14.169,14.17c0,4.908-2.263,9.259-5.882,11.869c-1.266,0.928-1.534,2.703-0.607,3.963
			c0.344,0.461,0.814,0.808,1.355,0.995c10.196,3.373,17.886,12.346,19.084,22.85h-19.26c-2.709-10.929-10.464-20.127-20.638-24.977
			c3.66-3.845,6.114-8.83,6.114-14.7c0-4.097-1.099-7.924-3.017-11.247C86.116,989.103,89.153,987.982,92.362,987.982z"/>
		<path fill="#5677FC" d="M99.444,1054.458H28.602c-2.278,0-4.136-1.853-4.136-4.126c0-0.516,0.005-1.032,0.02-1.538H4.512
			c-2.278,0-4.131-1.853-4.131-4.131c0-12.161,7.117-23.654,18.264-29.706c-2.647-3.657-4.09-8.145-4.09-12.805
			c0-11.85,9.278-21.133,21.128-21.133c4.242,0,8.353,1.271,11.951,3.688c4.48-4.212,10.255-6.52,16.386-6.52
			c6.129,0,11.911,2.308,16.39,6.52c3.6-2.417,7.709-3.688,11.951-3.688c11.851,0,21.135,9.283,21.135,21.133
			c0,4.655-1.443,9.142-4.091,12.805c11.146,6.049,18.264,17.545,18.264,29.706c0,2.278-1.853,4.131-4.13,4.131h-19.979
			c0.009,0.506,0.015,1.022,0.015,1.538C103.575,1052.605,101.723,1054.458,99.444,1054.458z M35.684,983.611
			c-10.393,0-18.537,8.145-18.537,18.542c0,4.602,1.59,9.006,4.47,12.402l1.083,1.273l-1.503,0.729
			c-11.071,5.388-18.223,16.42-18.223,28.105c0,0.851,0.688,1.539,1.539,1.539H27.25l-0.106,1.392
			c-0.066,0.906-0.086,1.818-0.086,2.738c0,0.846,0.693,1.535,1.544,1.535h70.842c0.851,0,1.538-0.689,1.538-1.535
			c0-0.92-0.01-1.832-0.075-2.738l-0.106-1.392h22.739c0.851,0,1.538-0.688,1.538-1.539c0-11.686-7.152-22.718-18.224-28.105
			l-1.498-0.729l1.079-1.273c2.88-3.401,4.469-7.805,4.469-12.402c0-10.396-8.145-18.542-18.542-18.542
			c-4.044,0-7.957,1.321-11.313,3.819l-0.91,0.676l-0.791-0.812c-4.09-4.201-9.531-6.515-15.327-6.515
			c-5.792,0-11.233,2.313-15.323,6.515l-0.79,0.812l-0.911-0.676C43.641,984.932,39.729,983.611,35.684,983.611z M97.774,1048.794
			H30.272l0.137-1.423c1.235-12.748,10.377-24.084,22.754-28.205c0.389-0.129,0.708-0.401,0.891-0.772
			c0.182-0.366,0.212-0.784,0.081-1.174c-0.096-0.293-0.289-0.557-0.536-0.744c-5.143-3.72-7.871-8.678-7.871-14.323
			c0-10.091,8.205-18.298,18.294-18.298c10.092,0,18.303,8.208,18.303,18.298c0,5.645-2.728,10.603-7.886,14.336
			c-0.314,0.235-0.527,0.593-0.587,1c-0.062,0.405,0.045,0.812,0.288,1.142c0.187,0.25,0.445,0.436,0.749,0.539
			c12.377,4.118,21.519,15.454,22.749,28.202L97.774,1048.794z M33.163,1046.202h61.721c-1.646-11.164-9.856-20.929-20.819-24.576
			c-0.812-0.273-1.499-0.774-2-1.45c-0.664-0.881-0.937-1.969-0.78-3.06c0.163-1.094,0.733-2.058,1.62-2.716
			c3.123-2.263,6.829-6.211,6.829-12.248c0-8.661-7.047-15.707-15.712-15.707c-8.656,0-15.703,7.046-15.703,15.707
			c0,6.037,3.706,9.985,6.813,12.235c0.699,0.521,1.194,1.213,1.462,2.015c0.35,1.046,0.269,2.163-0.222,3.151
			c-0.492,0.986-1.342,1.723-2.39,2.072C43.023,1025.273,34.813,1035.041,33.163,1046.202z M121.935,1043.125h-21.727l-0.242-0.985
			c-2.571-10.377-10.027-19.393-19.939-24.117l-1.615-0.77l1.236-1.293c3.766-3.957,5.756-8.733,5.756-13.808
			c0-3.713-0.983-7.377-2.846-10.599l-0.577-1.002l0.931-0.688c2.77-2.047,6.126-3.177,9.451-3.177
			c8.818,0,15.465,6.649,15.465,15.467c0,5.191-2.399,10.021-6.419,12.918c-0.323,0.238-0.542,0.598-0.602,1.002
			c-0.067,0.407,0.035,0.812,0.278,1.145c0.187,0.245,0.439,0.436,0.738,0.536c10.858,3.594,18.699,12.989,19.944,23.928
			L121.935,1043.125z M102.218,1040.532h16.766c-1.63-9.316-8.555-17.2-17.99-20.323c-0.805-0.278-1.488-0.777-1.989-1.45
			c-0.658-0.896-0.927-1.986-0.759-3.076c0.161-1.092,0.748-2.052,1.64-2.708c3.351-2.419,5.351-6.461,5.351-10.823
			c0-7.46-5.412-12.875-12.873-12.875c-2.414,0-4.859,0.719-6.979,2.04c1.711,3.349,2.611,7.069,2.611,10.835
			c0,5.207-1.832,10.12-5.32,14.304C92.205,1021.52,99.398,1030.365,102.218,1040.532z M27.837,1043.125H6.116l0.167-1.443
			c1.24-10.937,9.076-20.331,19.964-23.933c0.37-0.129,0.678-0.404,0.855-0.775c0.182-0.369,0.208-0.787,0.071-1.174
			c-0.102-0.299-0.289-0.552-0.537-0.731c-4.02-2.896-6.424-7.725-6.424-12.917c0-8.817,6.651-15.467,15.469-15.467
			c3.331,0,6.687,1.129,9.445,3.179l0.932,0.686l-0.577,1c-1.853,3.222-2.835,6.887-2.835,10.602c0,5.081,1.989,9.854,5.75,13.808
			l1.235,1.293l-1.614,0.77c-9.907,4.725-17.363,13.74-19.939,24.117L27.837,1043.125z M9.062,1040.532h16.765
			c2.825-10.167,10.018-19.012,19.544-24.076c-3.482-4.182-5.314-9.092-5.314-14.304c0-3.766,0.896-7.489,2.606-10.835
			c-2.121-1.321-4.561-2.04-6.98-2.04c-7.461,0-12.878,5.414-12.878,12.875c0,4.359,2,8.403,5.356,10.815
			c0.684,0.499,1.185,1.182,1.463,1.984c0.359,1.04,0.293,2.159-0.188,3.15c-0.481,0.995-1.316,1.739-2.359,2.102
			C17.618,1023.334,10.688,1031.219,9.062,1040.532z"/>
	</g>
</g>
</svg>
